<?xml version="1.0" encoding="UTF-8" standalone="no"?>
<svg
   width="640"
   height="640"
   viewBox="0 0 640 640"
   fill="none"
   version="1.1"
   id="svg144"
   sodipodi:docname="center.svg"
   inkscape:export-filename="center.svg"
   inkscape:export-xdpi="96"
   inkscape:export-ydpi="96"
   inkscape:version="1.4.2 (f4327f4, 2025-05-13)"
   xmlns:inkscape="http://www.inkscape.org/namespaces/inkscape"
   xmlns:sodipodi="http://sodipodi.sourceforge.net/DTD/sodipodi-0.dtd"
   xmlns="http://www.w3.org/2000/svg"
   xmlns:svg="http://www.w3.org/2000/svg">
  <sodipodi:namedview
     id="namedview1"
     pagecolor="#505050"
     bordercolor="#eeeeee"
     borderopacity="1"
     inkscape:showpageshadow="0"
     inkscape:pageopacity="0"
     inkscape:pagecheckerboard="0"
     inkscape:deskcolor="#505050"
     inkscape:zoom="0.89161746"
     inkscape:cx="312.91447"
     inkscape:cy="458.15613"
     inkscape:window-width="2560"
     inkscape:window-height="1009"
     inkscape:window-x="1912"
     inkscape:window-y="-8"
     inkscape:window-maximized="1"
     inkscape:current-layer="g141" />
  <g
     clip-path="url(#clip0_113_346)"
     id="g143"
     style="fill:#268e31;fill-opacity:1">
    <g
       clip-path="url(#clip1_113_346)"
       id="g141"
       style="display:inline;fill:#268e31;fill-opacity:1">
      <path
         opacity="0.4"
         d="m 467.74,435.33 c -15.806,20.077 -35.713,36.913 -58.175,49.112 l -1.567,-2.88 c 22.067,-11.987 41.635,-28.534 57.165,-48.265 z"
         fill="white"
         fill-opacity="0.25"
         id="path1"
         style="fill:#268e31;fill-opacity:1" />
      <path
         d="m 492.723,393.328 c -5.852,13.561 -13.285,26.43 -22.074,38.296 l -2.626,-1.962 c 8.64,-11.662 15.94,-24.305 21.686,-37.626 z"
         fill="white"
         fill-opacity="0.25"
         id="path2"
         style="fill:#268e31;fill-opacity:1" />
      <path
         opacity="0.4"
         d="m 504.851,286.804 c 0.741,3.622 1.144,7.292 1.638,10.949 0.282,1.828 0.402,3.671 0.55,5.506 l 0.445,5.521 c 0.092,1.842 0.12,3.692 0.191,5.534 l 0.084,2.767 0.043,1.384 -0.021,1.384 -0.113,5.534 -0.057,2.767 -0.197,2.761 -3.276,-0.198 0.191,-2.711 0.056,-2.718 0.106,-5.442 0.021,-1.363 -0.042,-1.362 -0.085,-2.718 c -0.063,-1.814 -0.092,-3.629 -0.183,-5.436 l -0.438,-5.421 c -0.148,-1.807 -0.268,-3.622 -0.544,-5.415 -0.487,-3.593 -0.875,-7.2 -1.609,-10.758 z"
         fill="white"
         fill-opacity="0.25"
         id="path3"
         style="fill:#268e31;fill-opacity:1" />
      <path
         d="m 495.328,252.672 c 3.741,9.763 6.678,19.823 8.781,30.066 l -3.212,0.649 c -2.061,-10.059 -4.948,-19.949 -8.626,-29.536 z"
         fill="white"
         fill-opacity="0.25"
         id="path4"
         style="fill:#268e31;fill-opacity:1" />
      <path
         opacity="0.4"
         d="m 299.257,505.811 -3.89,-0.473 c -1.299,-0.163 -2.598,-0.297 -3.883,-0.551 l -7.722,-1.341 -7.653,-1.723 -1.913,-0.437 -1.885,-0.53 -3.776,-1.059 0.91,-3.155 3.706,1.038 1.857,0.522 1.878,0.431 7.511,1.694 7.589,1.32 c 1.263,0.247 2.541,0.381 3.812,0.536 l 3.826,0.466 z"
         fill="white"
         fill-opacity="0.25"
         id="path5"
         style="fill:#268e31;fill-opacity:1" />
      <path
         d="m 495.328,252.672 c 3.741,9.763 6.678,19.823 8.781,30.066 l -3.212,0.649 c -2.061,-10.059 -4.948,-19.949 -8.626,-29.536 z"
         fill="white"
         fill-opacity="0.25"
         id="path6"
         style="fill:#268e31;fill-opacity:1" />
      <path
         d="m 254.564,495.088 -5.81,-2.273 c -0.974,-0.36 -1.913,-0.819 -2.866,-1.236 l -2.845,-1.277 c -3.833,-1.624 -7.475,-3.643 -11.195,-5.507 -1.829,-0.988 -3.615,-2.061 -5.422,-3.085 l -2.704,-1.553 c -0.889,-0.536 -1.757,-1.115 -2.633,-1.673 l -5.252,-3.367 -5.083,-3.614 c -0.847,-0.607 -1.701,-1.193 -2.534,-1.822 l -2.449,-1.927 c -1.624,-1.299 -3.29,-2.548 -4.885,-3.882 -3.128,-2.746 -6.347,-5.379 -9.297,-8.323 l -2.259,-2.153 c -0.756,-0.713 -1.511,-1.433 -2.21,-2.196 l -4.299,-4.518 -1.073,-1.136 -1.024,-1.179 -2.04,-2.358 c -1.348,-1.581 -2.753,-3.113 -4.01,-4.779 -21.008,-25.83 -34.731,-57.434 -39.595,-90.344 l 3.247,-0.473 c 4.779,32.324 18.256,63.385 38.904,88.763 1.228,1.638 2.612,3.141 3.939,4.694 l 2.005,2.316 1.002,1.157 1.052,1.116 4.229,4.44 c 0.691,0.755 1.433,1.461 2.174,2.16 l 2.216,2.118 c 2.895,2.887 6.064,5.478 9.135,8.175 1.567,1.305 3.205,2.541 4.8,3.812 l 2.408,1.899 c 0.819,0.614 1.659,1.192 2.492,1.785 l 4.998,3.551 5.16,3.311 c 0.861,0.544 1.715,1.115 2.591,1.645 l 2.661,1.525 c 1.779,1.009 3.53,2.061 5.33,3.028 3.656,1.828 7.228,3.812 10.998,5.407 l 2.795,1.257 c 0.932,0.41 1.85,0.868 2.81,1.214 l 5.704,2.238 z"
         fill="white"
         fill-opacity="0.25"
         id="path7"
         style="fill:#268e31;fill-opacity:1" />
      <path
         d="m 495.328,252.672 c 3.741,9.763 6.678,19.823 8.781,30.066 l -3.212,0.649 c -2.061,-10.059 -4.948,-19.949 -8.626,-29.536 z"
         fill="white"
         fill-opacity="0.25"
         id="path8"
         style="fill:#268e31;fill-opacity:1" />
      <path
         d="m 463.942,199.438 c 5.266,6.403 10.3,13.025 14.669,20.077 l -2.767,1.758 c -4.292,-6.932 -9.241,-13.441 -14.408,-19.731 z"
         fill="white"
         fill-opacity="0.25"
         id="path9"
         style="fill:#268e31;fill-opacity:1" />
      <path
         opacity="0.4"
         d="m 133.957,301.734 0.748,-6.106 0.374,-3.057 c 0.135,-1.016 0.339,-2.019 0.509,-3.035 l 1.052,-6.064 c 0.381,-2.012 0.889,-4.003 1.327,-6.008 0.819,-4.023 2.047,-7.941 3.127,-11.902 0.254,-0.995 0.607,-1.955 0.925,-2.929 L 143,259.717 c 0.664,-1.941 1.257,-3.903 2.047,-5.802 l 2.245,-5.733 c 0.353,-0.96 0.791,-1.891 1.214,-2.83 l 1.264,-2.803 c 1.602,-3.777 3.565,-7.384 5.414,-11.048 3.96,-7.179 8.161,-14.252 13.039,-20.853 l 1.786,-2.506 c 0.593,-0.833 1.256,-1.623 1.885,-2.435 l 3.804,-4.836 c 1.321,-1.567 2.683,-3.106 4.017,-4.659 l 2.019,-2.322 2.118,-2.231 4.257,-4.447 4.454,-4.243 c 0.748,-0.699 1.475,-1.426 2.238,-2.111 l 2.329,-2.012 c 1.56,-1.334 3.085,-2.703 4.674,-4.002 3.247,-2.506 6.395,-5.146 9.791,-7.448 l 2.506,-1.779 c 0.84,-0.593 1.659,-1.207 2.534,-1.743 l 5.182,-3.325 c 1.701,-1.144 3.522,-2.104 5.287,-3.142 l 2.668,-1.532 1.335,-0.769 1.369,-0.706 5.471,-2.809 c 0.459,-0.233 0.911,-0.473 1.37,-0.699 l 1.397,-0.636 2.803,-1.27 c 14.916,-6.862 30.806,-11.493 46.979,-14.218 8.111,-1.2 16.279,-2.153 24.489,-2.28 4.101,-0.212 8.203,-0.042 12.304,0.028 l 1.539,0.029 1.532,0.106 3.071,0.218 3.07,0.219 c 1.024,0.071 2.048,0.127 3.064,0.276 4.066,0.529 8.161,0.889 12.184,1.68 2.019,0.36 4.045,0.684 6.057,1.08 l 6.001,1.362 c 1.002,0.233 2.005,0.445 3,0.692 l 2.965,0.833 5.922,1.666 5.839,1.955 2.915,0.982 2.866,1.122 5.732,2.245 5.612,2.527 2.803,1.264 2.739,1.397 5.478,2.81 5.337,3.064 c 0.889,0.515 1.786,1.009 2.661,1.546 l 2.591,1.659 c 1.722,1.115 3.466,2.195 5.167,3.339 l 5.012,3.565 -1.934,2.654 -4.927,-3.509 c -1.674,-1.122 -3.389,-2.181 -5.076,-3.282 l -2.541,-1.631 c -0.862,-0.522 -1.744,-1.009 -2.612,-1.518 l -5.245,-3.014 -5.38,-2.76 -2.689,-1.377 -2.753,-1.242 -5.513,-2.485 -5.627,-2.209 -2.816,-1.102 -2.866,-0.96 -5.733,-1.92 -5.816,-1.638 -2.909,-0.819 c -0.974,-0.247 -1.962,-0.451 -2.944,-0.677 l -5.894,-1.334 c -1.977,-0.389 -3.967,-0.699 -5.951,-1.059 -3.96,-0.784 -7.977,-1.13 -11.973,-1.652 -0.995,-0.141 -2.004,-0.198 -3.007,-0.268 l -3.014,-0.212 -3.014,-0.212 -1.511,-0.106 -1.511,-0.028 c -4.031,-0.064 -8.061,-0.24 -12.085,-0.028 -8.062,0.12 -16.088,1.059 -24.058,2.237 -15.891,2.676 -31.499,7.222 -46.154,13.964 l -2.753,1.249 -1.376,0.621 c -0.452,0.219 -0.897,0.459 -1.349,0.685 l -5.379,2.76 -1.341,0.692 -1.313,0.755 -2.619,1.511 c -1.737,1.024 -3.523,1.963 -5.196,3.092 l -5.089,3.261 c -0.862,0.53 -1.666,1.13 -2.492,1.709 l -2.464,1.751 c -3.339,2.266 -6.431,4.856 -9.622,7.32 -1.56,1.278 -3.056,2.626 -4.588,3.932 l -2.287,1.977 c -0.749,0.67 -1.469,1.383 -2.203,2.075 l -4.377,4.165 -4.179,4.37 -2.082,2.188 -1.984,2.287 c -1.313,1.525 -2.654,3.036 -3.953,4.575 l -3.742,4.751 c -0.614,0.797 -1.263,1.567 -1.849,2.393 l -1.751,2.463 c -4.793,6.488 -8.916,13.434 -12.812,20.486 -1.815,3.601 -3.749,7.144 -5.323,10.857 l -1.242,2.754 c -0.41,0.917 -0.841,1.828 -1.193,2.774 l -2.203,5.626 c -0.776,1.864 -1.355,3.791 -2.012,5.697 l -0.96,2.866 c -0.318,0.96 -0.663,1.906 -0.911,2.88 -1.058,3.89 -2.273,7.737 -3.07,11.69 -0.431,1.97 -0.925,3.925 -1.306,5.902 l -1.038,5.958 c -0.162,0.995 -0.367,1.983 -0.501,2.979 l -0.367,3 -0.734,6 z"
         fill="white"
         fill-opacity="0.25"
         id="path10"
         style="fill:#268e31;fill-opacity:1" />
      <path
         d="m 393.928,492.009 c -9.622,4.088 -19.575,7.377 -29.741,9.841 l -0.769,-3.191 c 9.982,-2.414 19.759,-5.647 29.211,-9.664 z"
         fill="white"
         fill-opacity="0.25"
         id="path11"
         style="fill:#268e31;fill-opacity:1" />
      <g
         opacity="0.8"
         id="g15"
         style="display:inline;fill:#268e31;fill-opacity:1">
        <path
           d="m 26.5074,320.096 h -6.2686 c 0,-64.346 20.0765,-125.684 58.0554,-177.379 18.2764,-24.876 40.1888,-46.7319 65.1148,-64.9448 25.23,-18.4318 53.008,-32.7338 82.558,-42.4968 l 1.969,5.9509 C 107.456,81.0406 26.5074,193.113 26.5074,320.096 Z"
           fill="white"
           fill-opacity="0.25"
           id="path12"
           style="fill:#268e31;fill-opacity:1" />
        <path
           d="M 174.555,582.347 C 132.432,558.917 96.1334,525.231 69.5693,484.936 l 5.238,-3.452 c 26.0067,39.455 61.5567,72.435 102.7967,95.378 z"
           fill="white"
           fill-opacity="0.25"
           id="path13"
           style="fill:#268e31;fill-opacity:1" />
        <path
           d="m 320.145,619.994 v -6.269 c 48.264,0 96.111,-11.958 138.382,-34.583 61.896,-33.136 109.97,-87.33 135.369,-152.614 l 5.845,2.273 c -25.943,66.675 -75.04,122.026 -138.256,155.868 -43.174,23.113 -92.053,35.325 -141.34,35.325 z"
           fill="white"
           fill-opacity="0.25"
           id="path14"
           style="fill:#268e31;fill-opacity:1" />
        <path
           d="M 488.409,79.4242 C 438.945,44.7773 380.755,26.4586 320.145,26.4586 v -6.2687 c 61.909,0 121.341,18.7071 171.864,54.0952 z"
           fill="white"
           fill-opacity="0.25"
           id="path15"
           style="fill:#268e31;fill-opacity:1" />
      </g>
      <g
         opacity="0.75"
         id="g18"
         style="fill:#268e31;fill-opacity:1">
        <path
           d="m 613.795,320.143 -0.002,0.974 6.199,0.011 0.001,-0.974 z"
           fill="white"
           fill-opacity="0.25"
           id="path18"
           style="fill:#268e31;fill-opacity:1" />
      </g>
      <g
         opacity="0.75"
         id="g19"
         style="fill:#268e31;fill-opacity:1">
        <path
           d="m 594.393,425.233 -0.351,0.909 5.784,2.229 0.35,-0.909 z"
           fill="white"
           fill-opacity="0.25"
           id="path19"
           style="fill:#268e31;fill-opacity:1" />
      </g>
      <g
         opacity="0.5"
         id="g20"
         style="fill:#268e31;fill-opacity:1">
        <path
           d="m 614.229,341.919 -0.036,0.486 4.9,0.363 0.036,-0.486 z"
           fill="white"
           fill-opacity="0.25"
           id="path20"
           style="fill:#268e31;fill-opacity:1" />
      </g>
      <g
         opacity="0.5"
         id="g21"
         style="fill:#268e31;fill-opacity:1">
        <path
           d="m 611.887,363.406 -0.071,0.482 4.86,0.72 0.072,-0.482 z"
           fill="white"
           fill-opacity="0.25"
           id="path21"
           style="fill:#268e31;fill-opacity:1" />
      </g>
      <g
         opacity="0.5"
         id="g22"
         style="fill:#268e31;fill-opacity:1">
        <path
           d="m 607.915,384.589 -0.107,0.475 4.794,1.074 0.107,-0.475 z"
           fill="white"
           fill-opacity="0.25"
           id="path22"
           style="fill:#268e31;fill-opacity:1" />
      </g>
      <g
         opacity="0.5"
         id="g23"
         style="fill:#268e31;fill-opacity:1">
        <path
           d="m 602.486,405.56 -0.141,0.466 4.702,1.425 0.142,-0.466 z"
           fill="white"
           fill-opacity="0.25"
           id="path23"
           style="fill:#268e31;fill-opacity:1" />
      </g>
      <g
         opacity="0.75"
         id="g24"
         style="fill:#268e31;fill-opacity:1">
        <path
           d="m 593.907,426.258 -0.353,0.908 5.774,2.25 0.354,-0.907 z"
           fill="white"
           fill-opacity="0.25"
           id="path24"
           style="fill:#268e31;fill-opacity:1" />
      </g>
      <g
         opacity="0.75"
         id="g25"
         style="fill:#268e31;fill-opacity:1">
        <path
           d="m 537.857,517.157 -0.655,0.721 4.587,4.168 0.655,-0.721 z"
           fill="white"
           fill-opacity="0.25"
           id="path25"
           style="fill:#268e31;fill-opacity:1" />
      </g>
      <g
         opacity="0.5"
         id="g26"
         style="fill:#268e31;fill-opacity:1">
        <path
           d="m 586.577,446.758 -0.209,0.439 4.434,2.116 0.21,-0.439 z"
           fill="white"
           fill-opacity="0.25"
           id="path26"
           style="fill:#268e31;fill-opacity:1" />
      </g>
      <g
         opacity="0.5"
         id="g27"
         style="fill:#268e31;fill-opacity:1">
        <path
           d="m 580.554,468.715 -4.271,-2.436 0.247,-0.424 4.264,2.436 z"
           fill="white"
           fill-opacity="0.25"
           id="path27"
           style="fill:#268e31;fill-opacity:1" />
      </g>
      <g
         opacity="0.5"
         id="g28"
         style="fill:#268e31;fill-opacity:1">
        <path
           d="m 569.026,487.386 -4.073,-2.739 0.268,-0.409 4.08,2.739 z"
           fill="white"
           fill-opacity="0.25"
           id="path28"
           style="fill:#268e31;fill-opacity:1" />
      </g>
      <g
         opacity="0.5"
         id="g29"
         style="fill:#268e31;fill-opacity:1">
        <path
           d="m 552.454,501.713 -0.3,0.383 3.867,3.031 0.3,-0.383 z"
           fill="white"
           fill-opacity="0.25"
           id="path29"
           style="fill:#268e31;fill-opacity:1" />
      </g>
      <g
         opacity="0.75"
         id="g30"
         style="fill:#268e31;fill-opacity:1">
        <path
           d="m 537.167,517.982 -0.658,0.719 4.572,4.185 0.658,-0.718 z"
           fill="white"
           fill-opacity="0.25"
           id="path30"
           style="fill:#268e31;fill-opacity:1" />
      </g>
      <g
         opacity="0.75"
         id="g31"
         style="fill:#268e31;fill-opacity:1">
        <path
           d="m 451.895,582.513 -0.871,0.436 2.777,5.541 0.871,-0.436 z"
           fill="white"
           fill-opacity="0.25"
           id="path31"
           style="fill:#268e31;fill-opacity:1" />
      </g>
      <g
         opacity="0.5"
         id="g32"
         style="fill:#268e31;fill-opacity:1">
        <path
           d="m 525.752,538.262 -3.374,-3.572 0.353,-0.332 3.374,3.572 z"
           fill="white"
           fill-opacity="0.25"
           id="path32"
           style="fill:#268e31;fill-opacity:1" />
      </g>
      <g
         opacity="0.5"
         id="g33"
         style="fill:#268e31;fill-opacity:1">
        <path
           d="m 506.513,548.614 -0.378,0.307 3.105,3.808 0.377,-0.308 z"
           fill="white"
           fill-opacity="0.25"
           id="path33"
           style="fill:#268e31;fill-opacity:1" />
      </g>
      <g
         opacity="0.5"
         id="g34"
         style="fill:#268e31;fill-opacity:1">
        <path
           d="m 491.74,565.941 -2.816,-4.024 0.402,-0.275 2.817,4.024 z"
           fill="white"
           fill-opacity="0.25"
           id="path34"
           style="fill:#268e31;fill-opacity:1" />
      </g>
      <g
         opacity="0.5"
         id="g35"
         style="fill:#268e31;fill-opacity:1">
        <path
           d="m 473.33,577.879 -2.513,-4.222 0.416,-0.247 2.521,4.215 z"
           fill="white"
           fill-opacity="0.25"
           id="path35"
           style="fill:#268e31;fill-opacity:1" />
      </g>
      <g
         opacity="0.75"
         id="g36"
         style="fill:#268e31;fill-opacity:1">
        <path
           d="m 450.97,582.965 -0.873,0.433 2.757,5.551 0.873,-0.433 z"
           fill="white"
           fill-opacity="0.25"
           id="path36"
           style="fill:#268e31;fill-opacity:1" />
      </g>
      <g
         opacity="0.75"
         id="g37"
         style="fill:#268e31;fill-opacity:1">
        <path
           d="m 348.322,612.388 -0.97,0.091 0.576,6.171 0.97,-0.091 z"
           fill="white"
           fill-opacity="0.25"
           id="path37"
           style="fill:#268e31;fill-opacity:1" />
      </g>
      <g
         opacity="0.5"
         id="g38"
         style="fill:#268e31;fill-opacity:1">
        <path
           d="m 431.646,593.159 -0.451,0.184 1.856,4.549 0.451,-0.184 z"
           fill="white"
           fill-opacity="0.25"
           id="path38"
           style="fill:#268e31;fill-opacity:1" />
      </g>
      <g
         opacity="0.5"
         id="g39"
         style="fill:#268e31;fill-opacity:1">
        <path
           d="m 412.473,605.41 -1.517,-4.674 0.465,-0.155 1.518,4.673 z"
           fill="white"
           fill-opacity="0.25"
           id="path39"
           style="fill:#268e31;fill-opacity:1" />
      </g>
      <g
         opacity="0.5"
         id="g40"
         style="fill:#268e31;fill-opacity:1">
        <path
           d="m 390.672,606.513 -0.473,0.116 1.167,4.773 0.473,-0.116 z"
           fill="white"
           fill-opacity="0.25"
           id="path40"
           style="fill:#268e31;fill-opacity:1" />
      </g>
      <g
         opacity="0.5"
         id="g41"
         style="fill:#268e31;fill-opacity:1">
        <path
           d="m 369.555,610.818 -0.481,0.08 0.813,4.846 0.481,-0.081 z"
           fill="white"
           fill-opacity="0.25"
           id="path41"
           style="fill:#268e31;fill-opacity:1" />
      </g>
      <g
         opacity="0.75"
         id="g42"
         style="fill:#268e31;fill-opacity:1">
        <path
           d="m 347.228,612.447 -0.971,0.087 0.554,6.173 0.971,-0.087 z"
           fill="white"
           fill-opacity="0.25"
           id="path42"
           style="fill:#268e31;fill-opacity:1" />
      </g>
      <g
         opacity="0.75"
         id="g43"
         style="fill:#268e31;fill-opacity:1">
        <path
           d="m 239.836,602.509 -1.684,5.965 0.938,0.265 1.684,-5.965 z"
           fill="white"
           fill-opacity="0.25"
           id="path43"
           style="fill:#268e31;fill-opacity:1" />
      </g>
      <g
         opacity="0.5"
         id="g44"
         style="fill:#268e31;fill-opacity:1">
        <path
           d="m 325.582,614.939 -0.487,0.009 0.085,4.912 0.487,-0.008 z"
           fill="white"
           fill-opacity="0.25"
           id="path44"
           style="fill:#268e31;fill-opacity:1" />
      </g>
      <g
         opacity="0.5"
         id="g45"
         style="fill:#268e31;fill-opacity:1">
        <path
           d="m 303.499,614.572 -0.272,4.906 0.486,0.027 0.272,-4.906 z"
           fill="white"
           fill-opacity="0.25"
           id="path45"
           style="fill:#268e31;fill-opacity:1" />
      </g>
      <g
         opacity="0.5"
         id="g46"
         style="fill:#268e31;fill-opacity:1">
        <path
           d="m 281.938,612.461 -0.624,4.873 0.484,0.062 0.624,-4.874 z"
           fill="white"
           fill-opacity="0.25"
           id="path46"
           style="fill:#268e31;fill-opacity:1" />
      </g>
      <g
         opacity="0.5"
         id="g47"
         style="fill:#268e31;fill-opacity:1">
        <path
           d="m 260.155,613.952 -0.48,-0.092 0.981,-4.815 0.48,0.099 z"
           fill="white"
           fill-opacity="0.25"
           id="path47"
           style="fill:#268e31;fill-opacity:1" />
      </g>
      <g
         opacity="0.75"
         id="g48"
         style="fill:#268e31;fill-opacity:1">
        <path
           d="m 238.808,602.281 -1.705,5.959 0.936,0.268 1.706,-5.958 z"
           fill="white"
           fill-opacity="0.25"
           id="path48"
           style="fill:#268e31;fill-opacity:1" />
      </g>
      <g
         opacity="0.75"
         id="g49"
         style="fill:#268e31;fill-opacity:1">
        <path
           d="m 143.181,554.462 -3.732,4.948 0.777,0.586 3.733,-4.948 z"
           fill="white"
           fill-opacity="0.25"
           id="path49"
           style="fill:#268e31;fill-opacity:1" />
      </g>
      <g
         opacity="0.5"
         id="g50"
         style="fill:#268e31;fill-opacity:1">
        <path
           d="m 218.094,596.933 -1.695,4.612 0.457,0.168 1.695,-4.612 z"
           fill="white"
           fill-opacity="0.25"
           id="path50"
           style="fill:#268e31;fill-opacity:1" />
      </g>
      <g
         opacity="0.5"
         id="g51"
         style="fill:#268e31;fill-opacity:1">
        <path
           d="m 198.145,588.623 -2.032,4.473 0.443,0.201 2.032,-4.473 z"
           fill="white"
           fill-opacity="0.25"
           id="path51"
           style="fill:#268e31;fill-opacity:1" />
      </g>
      <g
         opacity="0.5"
         id="g52"
         style="fill:#268e31;fill-opacity:1">
        <path
           d="m 178.894,579.069 -2.352,4.314 0.427,0.233 2.353,-4.313 z"
           fill="white"
           fill-opacity="0.25"
           id="path52"
           style="fill:#268e31;fill-opacity:1" />
      </g>
      <g
         opacity="0.5"
         id="g53"
         style="fill:#268e31;fill-opacity:1">
        <path
           d="m 160.303,567.964 -2.659,4.131 0.41,0.264 2.658,-4.132 z"
           fill="white"
           fill-opacity="0.25"
           id="path53"
           style="fill:#268e31;fill-opacity:1" />
      </g>
      <g
         opacity="0.75"
         id="g54"
         style="fill:#268e31;fill-opacity:1">
        <path
           d="m 142.42,553.812 -3.75,4.935 0.781,0.593 3.751,-4.935 z"
           fill="white"
           fill-opacity="0.25"
           id="path54"
           style="fill:#268e31;fill-opacity:1" />
      </g>
      <g
         opacity="0.75"
         id="g55"
         style="fill:#268e31;fill-opacity:1">
        <path
           d="m 70.5471,474.728 -5.259,3.281 0.5156,0.826 5.2591,-3.28 z"
           fill="white"
           fill-opacity="0.25"
           id="path55"
           style="fill:#268e31;fill-opacity:1" />
      </g>
      <g
         opacity="0.5"
         id="g56"
         style="fill:#268e31;fill-opacity:1">
        <path
           d="m 125.056,541.26 -3.247,3.687 0.366,0.322 3.247,-3.687 z"
           fill="white"
           fill-opacity="0.25"
           id="path56"
           style="fill:#268e31;fill-opacity:1" />
      </g>
      <g
         opacity="0.5"
         id="g57"
         style="fill:#268e31;fill-opacity:1">
        <path
           d="m 109.398,526.446 -3.506,3.442 0.341,0.348 3.506,-3.442 z"
           fill="white"
           fill-opacity="0.25"
           id="path57"
           style="fill:#268e31;fill-opacity:1" />
      </g>
      <g
         opacity="0.5"
         id="g58"
         style="fill:#268e31;fill-opacity:1">
        <path
           d="m 94.8753,510.436 -3.7464,3.178 0.3151,0.372 3.7464,-3.179 z"
           fill="white"
           fill-opacity="0.25"
           id="path58"
           style="fill:#268e31;fill-opacity:1" />
      </g>
      <g
         opacity="0.5"
         id="g59"
         style="fill:#268e31;fill-opacity:1">
        <path
           d="m 81.5978,493.534 -3.9689,2.897 0.2872,0.393 3.9689,-2.896 z"
           fill="white"
           fill-opacity="0.25"
           id="path59"
           style="fill:#268e31;fill-opacity:1" />
      </g>
      <g
         opacity="0.75"
         id="g60"
         style="fill:#268e31;fill-opacity:1">
        <path
           d="m 69.8841,473.777 -5.2733,3.257 0.5119,0.829 5.2733,-3.257 z"
           fill="white"
           fill-opacity="0.25"
           id="path60"
           style="fill:#268e31;fill-opacity:1" />
      </g>
      <g
         opacity="0.75"
         id="g61"
         style="fill:#268e31;fill-opacity:1">
        <path
           d="m 31.5196,374.106 -6.0914,1.145 0.18,0.957 6.0914,-1.144 z"
           fill="white"
           fill-opacity="0.25"
           id="path61"
           style="fill:#268e31;fill-opacity:1" />
      </g>
      <g
         opacity="0.5"
         id="g62"
         style="fill:#268e31;fill-opacity:1">
        <path
           d="m 58.3322,455.947 -4.3556,2.274 0.2254,0.431 4.3556,-2.273 z"
           fill="white"
           fill-opacity="0.25"
           id="path62"
           style="fill:#268e31;fill-opacity:1" />
      </g>
      <g
         opacity="0.5"
         id="g63"
         style="fill:#268e31;fill-opacity:1">
        <path
           d="m 49.0138,436.427 -4.5123,1.944 0.1927,0.447 4.5123,-1.943 z"
           fill="white"
           fill-opacity="0.25"
           id="path63"
           style="fill:#268e31;fill-opacity:1" />
      </g>
      <g
         opacity="0.5"
         id="g64"
         style="fill:#268e31;fill-opacity:1">
        <path
           d="m 41.3051,416.298 -4.6425,1.608 0.1595,0.461 4.6425,-1.609 z"
           fill="white"
           fill-opacity="0.25"
           id="path64"
           style="fill:#268e31;fill-opacity:1" />
      </g>
      <g
         opacity="0.5"
         id="g65"
         style="fill:#268e31;fill-opacity:1">
        <path
           d="m 35.0143,395.651 -4.7501,1.256 0.1244,0.471 4.7502,-1.256 z"
           fill="white"
           fill-opacity="0.25"
           id="path65"
           style="fill:#268e31;fill-opacity:1" />
      </g>
      <g
         opacity="0.75"
         id="g66"
         style="fill:#268e31;fill-opacity:1">
        <path
           d="m 31.296,373.025 -6.0958,1.12 0.176,0.958 6.0958,-1.12 z"
           fill="white"
           fill-opacity="0.25"
           id="path66"
           style="fill:#268e31;fill-opacity:1" />
      </g>
      <g
         opacity="0.75"
         id="g67"
         style="fill:#268e31;fill-opacity:1">
        <path
           d="m 25.4096,265.087 -0.1762,0.958 6.0958,1.122 0.1762,-0.958 z"
           fill="white"
           fill-opacity="0.25"
           id="path67"
           style="fill:#268e31;fill-opacity:1" />
      </g>
      <g
         opacity="0.5"
         id="g68"
         style="fill:#268e31;fill-opacity:1">
        <path
           d="m 26.9292,352.143 -4.8838,0.536 0.0531,0.484 4.8838,-0.536 z"
           fill="white"
           fill-opacity="0.25"
           id="path68"
           style="fill:#268e31;fill-opacity:1" />
      </g>
      <g
         opacity="0.5"
         id="g69"
         style="fill:#268e31;fill-opacity:1">
        <path
           d="m 25.488,330.663 -4.9104,0.177 0.0175,0.487 4.9103,-0.177 z"
           fill="white"
           fill-opacity="0.25"
           id="path69"
           style="fill:#268e31;fill-opacity:1" />
      </g>
      <g
         opacity="0.5"
         id="g70"
         style="fill:#268e31;fill-opacity:1">
        <path
           d="m 20.5868,308.845 -0.0175,0.487 4.9104,0.176 0.0175,-0.486 z"
           fill="white"
           fill-opacity="0.25"
           id="path70"
           style="fill:#268e31;fill-opacity:1" />
      </g>
      <g
         opacity="0.5"
         id="g71"
         style="fill:#268e31;fill-opacity:1">
        <path
           d="m 22.1216,287.005 -0.0528,0.484 4.8844,0.532 0.0528,-0.484 z"
           fill="white"
           fill-opacity="0.25"
           id="path71"
           style="fill:#268e31;fill-opacity:1" />
      </g>
      <g
         opacity="0.75"
         id="g72"
         style="fill:#268e31;fill-opacity:1">
        <path
           d="m 25.5699,263.968 -0.1798,0.958 6.0914,1.143 0.1798,-0.957 z"
           fill="white"
           fill-opacity="0.25"
           id="path72"
           style="fill:#268e31;fill-opacity:1" />
      </g>
      <g
         opacity="0.75"
         id="g73"
         style="fill:#268e31;fill-opacity:1">
        <path
           d="m 65.1395,162.264 -0.5121,0.829 5.2727,3.257 0.512,-0.828 z"
           fill="white"
           fill-opacity="0.25"
           id="path73"
           style="fill:#268e31;fill-opacity:1" />
      </g>
      <g
         opacity="0.5"
         id="g74"
         style="fill:#268e31;fill-opacity:1">
        <path
           d="m 30.3758,242.832 -0.1248,0.471 4.7491,1.259 0.1249,-0.471 z"
           fill="white"
           fill-opacity="0.25"
           id="path74"
           style="fill:#268e31;fill-opacity:1" />
      </g>
      <g
         opacity="0.5"
         id="g75"
         style="fill:#268e31;fill-opacity:1">
        <path
           d="m 36.8584,221.855 -0.1592,0.46 4.6435,1.606 0.1592,-0.46 z"
           fill="white"
           fill-opacity="0.25"
           id="path75"
           style="fill:#268e31;fill-opacity:1" />
      </g>
      <g
         opacity="0.5"
         id="g76"
         style="fill:#268e31;fill-opacity:1">
        <path
           d="m 44.7249,201.387 -0.1927,0.447 4.5123,1.944 0.1927,-0.447 z"
           fill="white"
           fill-opacity="0.25"
           id="path76"
           style="fill:#268e31;fill-opacity:1" />
      </g>
      <g
         opacity="0.5"
         id="g77"
         style="fill:#268e31;fill-opacity:1">
        <path
           d="m 54.1854,181.56 -0.225,0.432 4.3576,2.27 0.225,-0.432 z"
           fill="white"
           fill-opacity="0.25"
           id="path77"
           style="fill:#268e31;fill-opacity:1" />
      </g>
      <g
         opacity="0.75"
         id="g78"
         style="fill:#268e31;fill-opacity:1">
        <path
           d="m 65.7431,161.343 -0.5151,0.826 5.2609,3.277 0.515,-0.827 z"
           fill="white"
           fill-opacity="0.25"
           id="path78"
           style="fill:#268e31;fill-opacity:1" />
      </g>
      <g
         opacity="0.75"
         id="g79"
         style="fill:#268e31;fill-opacity:1">
        <path
           d="m 139.419,80.8684 -0.775,0.5891 3.747,4.9367 0.776,-0.5891 z"
           fill="white"
           fill-opacity="0.25"
           id="path79"
           style="fill:#268e31;fill-opacity:1" />
      </g>
      <g
         opacity="0.5"
         id="g80"
         style="fill:#268e31;fill-opacity:1">
        <path
           d="m 77.9081,143.39 -0.287,0.393 3.9694,2.896 0.287,-0.394 z"
           fill="white"
           fill-opacity="0.25"
           id="path80"
           style="fill:#268e31;fill-opacity:1" />
      </g>
      <g
         opacity="0.5"
         id="g81"
         style="fill:#268e31;fill-opacity:1">
        <path
           d="m 91.4985,126.14 -0.3149,0.371 3.7483,3.177 0.3149,-0.372 z"
           fill="white"
           fill-opacity="0.25"
           id="path81"
           style="fill:#268e31;fill-opacity:1" />
      </g>
      <g
         opacity="0.5"
         id="g82"
         style="fill:#268e31;fill-opacity:1">
        <path
           d="m 106.264,109.966 -0.341,0.348 3.507,3.441 0.342,-0.348 z"
           fill="white"
           fill-opacity="0.25"
           id="path82"
           style="fill:#268e31;fill-opacity:1" />
      </g>
      <g
         opacity="0.5"
         id="g83"
         style="fill:#268e31;fill-opacity:1">
        <path
           d="m 122.236,94.9129 -0.366,0.322 3.248,3.6868 0.365,-0.3219 z"
           fill="white"
           fill-opacity="0.25"
           id="path83"
           style="fill:#268e31;fill-opacity:1" />
      </g>
      <g
         opacity="0.75"
         id="g84"
         style="fill:#268e31;fill-opacity:1">
        <path
           d="m 140.291,80.1803 -0.778,0.5863 3.73,4.9504 0.778,-0.5863 z"
           fill="white"
           fill-opacity="0.25"
           id="path84"
           style="fill:#268e31;fill-opacity:1" />
      </g>
      <g
         opacity="0.75"
         id="g85"
         style="fill:#268e31;fill-opacity:1">
        <path
           d="m 238.028,31.7293 -0.937,0.2678 1.704,5.9594 0.937,-0.2678 z"
           fill="white"
           fill-opacity="0.25"
           id="path85"
           style="fill:#268e31;fill-opacity:1" />
      </g>
      <g
         opacity="0.5"
         id="g86"
         style="fill:#268e31;fill-opacity:1">
        <path
           d="m 158.091,67.8068 -0.409,0.264 2.662,4.1291 0.409,-0.264 z"
           fill="white"
           fill-opacity="0.25"
           id="path86"
           style="fill:#268e31;fill-opacity:1" />
      </g>
      <g
         opacity="0.5"
         id="g87"
         style="fill:#268e31;fill-opacity:1">
        <path
           d="m 176.938,56.5577 -0.427,0.2333 2.353,4.3129 0.428,-0.2333 z"
           fill="white"
           fill-opacity="0.25"
           id="path87"
           style="fill:#268e31;fill-opacity:1" />
      </g>
      <g
         opacity="0.5"
         id="g88"
         style="fill:#268e31;fill-opacity:1">
        <path
           d="m 196.585,46.8793 -0.443,0.2013 2.03,4.4739 0.443,-0.2012 z"
           fill="white"
           fill-opacity="0.25"
           id="path88"
           style="fill:#268e31;fill-opacity:1" />
      </g>
      <g
         opacity="0.5"
         id="g89"
         style="fill:#268e31;fill-opacity:1">
        <path
           d="m 216.911,38.5018 -0.457,0.1681 1.695,4.6116 0.457,-0.1681 z"
           fill="white"
           fill-opacity="0.25"
           id="path89"
           style="fill:#268e31;fill-opacity:1" />
      </g>
      <g
         opacity="0.75"
         id="g90"
         style="fill:#268e31;fill-opacity:1">
        <path
           d="m 239.098,31.4129 -0.938,0.2643 1.682,5.9657 0.938,-0.2644 z"
           fill="white"
           fill-opacity="0.25"
           id="path90"
           style="fill:#268e31;fill-opacity:1" />
      </g>
      <g
         opacity="0.75"
         id="g91"
         style="fill:#268e31;fill-opacity:1">
        <path
           d="m 346.782,21.4556 -0.555,6.1733 0.97,0.0872 0.555,-6.1733 z"
           fill="white"
           fill-opacity="0.25"
           id="path91"
           style="fill:#268e31;fill-opacity:1" />
      </g>
      <g
         opacity="0.5"
         id="g92"
         style="fill:#268e31;fill-opacity:1">
        <path
           d="m 260.141,26.2069 -0.477,0.0973 0.981,4.814 0.477,-0.0973 z"
           fill="white"
           fill-opacity="0.25"
           id="path92"
           style="fill:#268e31;fill-opacity:1" />
      </g>
      <g
         opacity="0.5"
         id="g93"
         style="fill:#268e31;fill-opacity:1">
        <path
           d="m 281.783,22.7314 -0.483,0.0621 0.626,4.8729 0.483,-0.0621 z"
           fill="white"
           fill-opacity="0.25"
           id="path93"
           style="fill:#268e31;fill-opacity:1" />
      </g>
      <g
         opacity="0.5"
         id="g94"
         style="fill:#268e31;fill-opacity:1">
        <path
           d="m 303.671,20.6984 -0.486,0.0267 0.269,4.9059 0.487,-0.0267 z"
           fill="white"
           fill-opacity="0.25"
           id="path94"
           style="fill:#268e31;fill-opacity:1" />
      </g>
      <g
         opacity="0.5"
         id="g95"
         style="fill:#268e31;fill-opacity:1">
        <path
           d="m 325.099,20.3768 -0.088,4.9123 0.487,0.0087 0.088,-4.9123 z"
           fill="white"
           fill-opacity="0.25"
           id="path95"
           style="fill:#268e31;fill-opacity:1" />
      </g>
      <g
         opacity="0.75"
         id="g96"
         style="fill:#268e31;fill-opacity:1">
        <path
           d="m 347.873,21.5347 -0.576,6.1714 0.97,0.0904 0.576,-6.1714 z"
           fill="white"
           fill-opacity="0.25"
           id="path96"
           style="fill:#268e31;fill-opacity:1" />
      </g>
      <g
         opacity="0.75"
         id="g97"
         style="fill:#268e31;fill-opacity:1">
        <path
           d="m 452.907,51.2252 -2.76,5.5497 0.873,0.4338 2.76,-5.5497 z"
           fill="white"
           fill-opacity="0.25"
           id="path97"
           style="fill:#268e31;fill-opacity:1" />
      </g>
      <g
         opacity="0.5"
         id="g98"
         style="fill:#268e31;fill-opacity:1">
        <path
           d="m 369.836,24.3992 -0.815,4.8449 0.48,0.0809 0.815,-4.8449 z"
           fill="white"
           fill-opacity="0.25"
           id="path98"
           style="fill:#268e31;fill-opacity:1" />
      </g>
      <g
         opacity="0.5"
         id="g99"
         style="fill:#268e31;fill-opacity:1">
        <path
           d="m 391.353,28.7703 -1.166,4.7727 0.473,0.1157 1.167,-4.7727 z"
           fill="white"
           fill-opacity="0.25"
           id="path99"
           style="fill:#268e31;fill-opacity:1" />
      </g>
      <g
         opacity="0.5"
         id="g100"
         style="fill:#268e31;fill-opacity:1">
        <path
           d="m 412.495,34.7972 -1.521,4.672 0.463,0.1508 1.521,-4.672 z"
           fill="white"
           fill-opacity="0.25"
           id="path100"
           style="fill:#268e31;fill-opacity:1" />
      </g>
      <g
         opacity="0.5"
         id="g101"
         style="fill:#268e31;fill-opacity:1">
        <path
           d="m 433.105,42.2726 -1.858,4.5487 0.451,0.1842 1.858,-4.5487 z"
           fill="white"
           fill-opacity="0.25"
           id="path101"
           style="fill:#268e31;fill-opacity:1" />
      </g>
      <g
         opacity="0.75"
         id="g102"
         style="fill:#268e31;fill-opacity:1">
        <path
           d="m 453.853,51.6765 -2.78,5.5398 0.87,0.4369 2.78,-5.5398 z"
           fill="white"
           fill-opacity="0.25"
           id="path102"
           style="fill:#268e31;fill-opacity:1" />
      </g>
      <g
         opacity="0.75"
         id="g103"
         style="fill:#268e31;fill-opacity:1">
        <path
           d="m 541.062,117.357 -4.57,4.187 0.658,0.718 4.57,-4.186 z"
           fill="white"
           fill-opacity="0.25"
           id="path103"
           style="fill:#268e31;fill-opacity:1" />
      </g>
      <g
         opacity="0.5"
         id="g104"
         style="fill:#268e31;fill-opacity:1">
        <path
           d="m 473.38,62.3079 -2.518,4.2194 0.419,0.2496 2.517,-4.2194 z"
           fill="white"
           fill-opacity="0.25"
           id="path104"
           style="fill:#268e31;fill-opacity:1" />
      </g>
      <g
         opacity="0.5"
         id="g105"
         style="fill:#268e31;fill-opacity:1">
        <path
           d="m 491.699,74.2627 -2.819,4.0239 0.399,0.2795 2.819,-4.024 z"
           fill="white"
           fill-opacity="0.25"
           id="path105"
           style="fill:#268e31;fill-opacity:1" />
      </g>
      <g
         opacity="0.5"
         id="g106"
         style="fill:#268e31;fill-opacity:1">
        <path
           d="m 509.259,87.451 -3.104,3.8083 0.378,0.3077 3.104,-3.8082 z"
           fill="white"
           fill-opacity="0.25"
           id="path106"
           style="fill:#268e31;fill-opacity:1" />
      </g>
      <g
         opacity="0.5"
         id="g107"
         style="fill:#268e31;fill-opacity:1">
        <path
           d="m 525.762,101.88 -3.377,3.569 0.354,0.335 3.376,-3.569 z"
           fill="white"
           fill-opacity="0.25"
           id="path107"
           style="fill:#268e31;fill-opacity:1" />
      </g>
      <g
         opacity="0.75"
         id="g108"
         style="fill:#268e31;fill-opacity:1">
        <path
           d="m 541.795,118.155 -4.587,4.168 0.655,0.721 4.587,-4.168 z"
           fill="white"
           fill-opacity="0.25"
           id="path108"
           style="fill:#268e31;fill-opacity:1" />
      </g>
      <g
         opacity="0.75"
         id="g109"
         style="fill:#268e31;fill-opacity:1">
        <path
           d="m 599.347,210.803 -5.776,2.249 0.354,0.908 5.775,-2.249 z"
           fill="white"
           fill-opacity="0.25"
           id="path109"
           style="fill:#268e31;fill-opacity:1" />
      </g>
      <g
         opacity="0.5"
         id="g110"
         style="fill:#268e31;fill-opacity:1">
        <path
           d="m 556.084,135.112 -3.865,3.034 0.301,0.383 3.865,-3.034 z"
           fill="white"
           fill-opacity="0.25"
           id="path110"
           style="fill:#268e31;fill-opacity:1" />
      </g>
      <g
         opacity="0.5"
         id="g111"
         style="fill:#268e31;fill-opacity:1">
        <path
           d="m 565.221,155.946 -0.268,-0.402 4.073,-2.739 0.275,0.402 z"
           fill="white"
           fill-opacity="0.25"
           id="path111"
           style="fill:#268e31;fill-opacity:1" />
      </g>
      <g
         opacity="0.5"
         id="g112"
         style="fill:#268e31;fill-opacity:1">
        <path
           d="m 576.53,174.336 -0.247,-0.431 4.271,-2.428 0.24,0.423 z"
           fill="white"
           fill-opacity="0.25"
           id="path112"
           style="fill:#268e31;fill-opacity:1" />
      </g>
      <g
         opacity="0.5"
         id="g113"
         style="fill:#268e31;fill-opacity:1">
        <path
           d="m 590.858,190.874 -4.436,2.113 0.21,0.44 4.436,-2.114 z"
           fill="white"
           fill-opacity="0.25"
           id="path113"
           style="fill:#268e31;fill-opacity:1" />
      </g>
      <g
         opacity="0.75"
         id="g114"
         style="fill:#268e31;fill-opacity:1">
        <path
           d="m 599.783,211.797 -5.783,2.229 0.35,0.909 5.784,-2.229 z"
           fill="white"
           fill-opacity="0.25"
           id="path114"
           style="fill:#268e31;fill-opacity:1" />
      </g>
      <g
         opacity="0.75"
         id="g115"
         style="fill:#268e31;fill-opacity:1">
        <path
           d="m 619.994,319.061 -6.198,0.01 0.002,0.974 6.198,-0.01 z"
           fill="white"
           fill-opacity="0.25"
           id="path115"
           style="fill:#268e31;fill-opacity:1" />
      </g>
      <g
         opacity="0.5"
         id="g116"
         style="fill:#268e31;fill-opacity:1">
        <path
           d="m 607.044,232.76 -4.703,1.424 0.141,0.466 4.703,-1.424 z"
           fill="white"
           fill-opacity="0.25"
           id="path116"
           style="fill:#268e31;fill-opacity:1" />
      </g>
      <g
         opacity="0.5"
         id="g117"
         style="fill:#268e31;fill-opacity:1">
        <path
           d="m 612.645,254.029 -4.795,1.07 0.106,0.476 4.796,-1.071 z"
           fill="white"
           fill-opacity="0.25"
           id="path117"
           style="fill:#268e31;fill-opacity:1" />
      </g>
      <g
         opacity="0.5"
         id="g118"
         style="fill:#268e31;fill-opacity:1">
        <path
           d="m 616.637,275.583 -4.86,0.719 0.071,0.482 4.86,-0.719 z"
           fill="white"
           fill-opacity="0.25"
           id="path118"
           style="fill:#268e31;fill-opacity:1" />
      </g>
      <g
         opacity="0.5"
         id="g119"
         style="fill:#268e31;fill-opacity:1">
        <path
           d="m 619.041,297.425 -4.899,0.367 0.036,0.486 4.899,-0.367 z"
           fill="white"
           fill-opacity="0.25"
           id="path119"
           style="fill:#268e31;fill-opacity:1" />
      </g>
      <path
         d="m 205.983,49.1678 -2.217,-5.2521 c 7.285,-3.0707 14.782,-5.8874 22.293,-8.3722 l 1.786,5.4144 c -7.363,2.4354 -14.718,5.1956 -21.862,8.2099 z"
         fill="white"
         fill-opacity="0.25"
         id="path120"
         style="fill:#268e31;fill-opacity:1" />
      <path
         d="m 174.689,582.1 c -5.846,-3.254 -11.655,-6.749 -17.274,-10.384 l 3.099,-4.786 c 5.513,3.572 11.217,7.002 16.949,10.193 z"
         fill="white"
         fill-opacity="0.25"
         id="path121"
         style="fill:#268e31;fill-opacity:1" />
      <path
         d="m 231.275,628.006 c -1.553,-0.452 -3.106,-0.911 -4.652,-1.376 l 1.398,-4.589 c 1.525,0.466 3.049,0.918 4.581,1.355 z"
         fill="#CFFF55"
         id="path122"
         style="fill:#268e31;fill-opacity:1" />
      <path
         d="M 0.225902,337.772 C 0.14119,336.155 0.0635334,334.546 0,332.929 l 4.80029,-0.19 c 0.06353,1.595 0.13413,3.184 0.2259,4.772 z"
         fill="#CFFF55"
         id="path124"
         style="fill:#268e31;fill-opacity:1" />
      <g
         opacity="0.5"
         id="g126"
         style="display:inline;fill:#268e31;fill-opacity:1">
        <path
           d="M 320.35,605.728 C 162.667,605.728 34.3789,477.44 34.3789,319.757 34.3789,162.074 162.667,33.7861 320.35,33.7861 v 1.6448 c -156.772,0 -284.3192,127.5471 -284.3192,284.3191 0,156.772 127.5472,284.319 284.3192,284.319 z"
           fill="white"
           fill-opacity="0.4"
           id="path126"
           style="fill:#268e31;fill-opacity:1" />
      </g>
      <path
         opacity="0.3"
         d="m 219.042,420.676 c -55.578,-55.818 -55.507,-146.438 0.211,-202.163 55.726,-55.726 146.353,-55.797 202.164,-0.212 l 43.788,-43.789 C 385.245,94.7849 255.333,94.8555 175.458,174.731 95.5892,254.6 95.5186,384.518 175.239,464.479 Z"
         fill="white"
         fill-opacity="0.1"
         id="path134"
         style="fill:#268e31;fill-opacity:1" />
      <path
         d="M 103.743,317.639 H 80.7227 v 4.588 h 23.0203 z"
         fill="#CFFF55"
         id="path135"
         style="fill:#268e31;fill-opacity:1" />
      <path
         d="m 559.609,317.639 h -23.021 v 4.588 h 23.021 z"
         fill="#CFFF55"
         id="path136"
         style="fill:#268e31;fill-opacity:1" />
      <path
         d="m 156.959,153.486 -3.244,3.245 16.277,16.278 3.245,-3.245 z"
         fill="white"
         fill-opacity="0.25"
         id="path137"
         style="fill:#268e31;fill-opacity:1" />
      <path
         d="m 470.315,466.848 -3.245,3.244 16.278,16.278 3.244,-3.245 z"
         fill="white"
         fill-opacity="0.25"
         id="path138"
         style="fill:#268e31;fill-opacity:1" />
      <path
         opacity="0.5"
         d="m 320.229,114.763 v 61.902 c 24.757,-0.035 49.521,6.304 71.595,18.997 l 30.814,-53.721 C 391.055,123.799 355.645,114.728 320.229,114.763 Z"
         fill="white"
         fill-opacity="0.25"
         id="path139"
         style="fill:#268e31;fill-opacity:1" />
      <path
         d="m 319.672,577.766 c -1.744,0 -3.48,-0.021 -5.217,-0.057 -19.949,-0.508 -39.849,-3.303 -59.149,-8.315 l -3.615,-0.904 -12.537,-3.805 -12.333,-4.433 -12.092,-5.047 c -0.381,-0.156 -0.748,-0.339 -1.115,-0.516 -0.198,-0.099 -0.396,-0.19 -0.593,-0.282 l -10.109,-4.843 c -0.735,-0.367 -1.44,-0.755 -2.146,-1.143 -0.389,-0.212 -0.777,-0.424 -1.172,-0.636 -17.571,-9.29 -34.096,-20.599 -49.119,-33.623 -0.818,-0.071 -1.609,-0.177 -2.379,-0.275 l -2.837,-0.382 -5.45,-0.776 -5.527,-0.854 -5.662,-1.13 -0.134,-0.134 C 104.753,486.8 85.142,457.829 71.7647,426.825 58.3309,395.729 50.6928,361.583 49.6621,328.08 l 1.2424,-0.036 c 1.0166,33.355 8.6264,67.339 21.9967,98.294 13.2855,30.799 32.7618,59.594 56.3258,83.264 l 5.259,1.052 5.499,0.847 8.267,1.157 c 0.854,0.113 1.666,0.219 2.52,0.29 l 0.205,0.014 0.155,0.134 c 14.994,13.017 31.498,24.319 49.041,33.595 0.395,0.212 0.79,0.431 1.186,0.642 0.691,0.382 1.39,0.763 2.096,1.116 l 10.095,4.828 c 0.198,0.092 0.402,0.191 0.607,0.29 0.346,0.169 0.699,0.339 1.052,0.487 l 12.064,5.033 12.269,4.412 12.474,3.791 3.593,0.897 c 19.215,4.99 39.024,7.772 58.874,8.28 19.562,0.409 39.469,-1.497 59.178,-5.662 18.771,-3.903 37.718,-10.32 56.312,-19.081 l 3.381,-1.588 c 0.198,-0.092 0.403,-0.191 0.607,-0.282 0.353,-0.163 0.713,-0.332 1.059,-0.509 l 10.723,-5.668 10.42,-6.163 6.219,-4.08 c 0.593,-0.396 1.2,-0.791 1.8,-1.186 1.447,-0.946 2.951,-1.92 4.334,-2.986 1.095,-0.812 2.189,-1.603 3.276,-2.393 2.88,-2.09 5.859,-4.25 8.619,-6.573 l 5.824,-4.694 5.556,-4.941 c 2.894,-2.464 5.64,-5.168 8.295,-7.787 0.833,-0.826 1.673,-1.645 2.513,-2.463 1.468,-1.377 2.859,-2.888 4.193,-4.342 l 6.014,-6.501 c 1.01,-1.172 2.012,-2.38 3.015,-3.587 0.586,-0.706 1.171,-1.411 1.764,-2.11 l 3.587,-4.292 1.108,-1.469 c 12.198,-15.657 22.611,-32.733 30.955,-50.763 l 1.129,0.523 c -8.386,18.121 -18.848,35.275 -31.096,51.003 l -1.122,1.482 -3.608,4.32 c -0.593,0.699 -1.178,1.405 -1.764,2.111 -1.01,1.207 -2.019,2.421 -3.043,3.614 l -6.029,6.516 c -1.355,1.476 -2.76,3 -4.249,4.398 -0.833,0.812 -1.666,1.631 -2.499,2.45 -2.676,2.633 -5.436,5.358 -8.351,7.835 l -5.57,4.949 -5.838,4.701 c -2.781,2.351 -5.782,4.525 -8.683,6.622 -1.087,0.791 -2.181,1.581 -3.261,2.379 -1.419,1.087 -2.937,2.075 -4.405,3.035 -0.6,0.389 -1.2,0.784 -1.793,1.179 l -6.248,4.102 -10.469,6.191 -10.751,5.69 c -0.367,0.19 -0.741,0.36 -1.108,0.529 -0.198,0.092 -0.403,0.184 -0.6,0.282 l -3.389,1.589 c -18.679,8.796 -37.717,15.248 -56.587,19.173 -18.036,3.819 -36.263,5.746 -54.229,5.746 z"
         fill="white"
         fill-opacity="0.25"
         id="path140"
         style="fill:#268e31;fill-opacity:1" />
      <path
         d="m 560.695,413.101 -1.165,-0.445 c 10.907,-28.435 16.773,-57.879 17.437,-87.5 0.572,-30.008 -4.038,-59.664 -13.695,-88.142 l -2.831,-7.927 c -0.31,-0.89 -0.621,-1.765 -0.981,-2.584 l -4.285,-10.398 -4.758,-10.144 c -0.346,-0.777 -0.748,-1.532 -1.144,-2.266 l -4.052,-7.66 c -7.193,-13.066 -15.565,-25.582 -24.877,-37.209 -9.318,-11.634 -19.716,-22.526 -30.905,-32.388 -10.991,-9.636 -23.161,-18.509 -36.164,-26.373 l -0.17,-0.0991 -2.88,-6.4522 -1.828,-3.6355 c -1.638,-3.2261 -3.34,-6.4945 -5.062,-9.7206 -19.957,-10.1794 -41.36,-17.9658 -63.625,-23.1544 -1.038,-0.2824 -2.104,-0.4871 -3.127,-0.6847 -0.339,-0.0636 -0.685,-0.1342 -1.024,-0.1977 l -10.462,-2.0542 -2.082,-0.3036 c -1.313,-0.1835 -2.626,-0.3812 -3.946,-0.5718 C 354.84,52.57 350.463,51.9206 346.136,51.61 l -6.382,-0.6001 c -0.783,-0.0847 -1.461,-0.1341 -2.089,-0.1482 l -8.535,-0.3813 c -0.494,-0.0211 -0.995,-0.0423 -1.496,-0.0635 -0.897,-0.0423 -1.829,-0.0847 -2.739,-0.0917 l -12.792,0.0705 -12.749,0.6918 -12.699,1.299 c -1.822,0.247 -3.692,0.5364 -5.507,0.8188 -0.967,0.1483 -1.934,0.2965 -2.901,0.4447 l -4.214,0.6425 c -0.897,0.1411 -1.807,0.3247 -2.683,0.5082 -0.494,0.0988 -0.988,0.2048 -1.482,0.2965 l -8.351,1.6872 c -1.786,0.3953 -3.601,0.8612 -5.358,1.306 -0.968,0.247 -1.928,0.4941 -2.895,0.7341 l -5.16,1.3059 -11.189,3.4026 c -0.939,0.2683 -1.878,0.6001 -2.774,0.9318 -0.41,0.1483 -0.826,0.2965 -1.236,0.4377 l -4.009,1.4331 c -4.073,1.3624 -8.104,3.0354 -12.001,4.652 -1.278,0.5294 -2.555,1.0589 -3.84,1.5813 -1.109,0.4306 -2.21,0.953 -3.269,1.4472 l -8.315,3.9037 c -0.219,0.1059 -0.452,0.2118 -0.685,0.3177 -0.41,0.1906 -0.812,0.3741 -1.207,0.5859 l -9.425,4.9838 c -0.218,0.1201 -0.444,0.233 -0.663,0.353 -0.402,0.2118 -0.805,0.4235 -1.2,0.6424 l -10.998,6.5086 -10.66,7.017 -10.321,7.5178 c -0.36,0.261 -0.705,0.551 -1.058,0.833 -0.198,0.163 -0.396,0.325 -0.593,0.48 -1.017,0.826 -2.041,1.645 -3.064,2.471 -3.346,2.683 -6.805,5.457 -10.003,8.422 l -3.198,2.845 c -0.325,0.296 -0.657,0.586 -0.995,0.882 -0.713,0.628 -1.455,1.278 -2.125,1.963 l -7.624,7.475 c -0.565,0.544 -1.024,1.003 -1.461,1.497 l -2.902,3.141 c -0.663,0.727 -1.341,1.447 -2.012,2.174 -1.242,1.335 -2.52,2.718 -3.755,4.102 l -8.196,9.805 -7.702,10.187 c -1.052,1.503 -2.0963,3.035 -3.1411,4.574 -0.5506,0.812 -1.1083,1.631 -1.6589,2.443 l -2.9931,4.405 -6.0851,9.988 c -0.1271,0.212 -0.2612,0.431 -0.3953,0.65 -0.233,0.381 -0.473,0.762 -0.6777,1.151 l -5.1886,9.565 c -0.6283,1.158 -1.2848,2.351 -1.8283,3.558 l -3.692,7.701 c -0.2118,0.452 -0.4306,0.911 -0.6495,1.363 -0.3882,0.805 -0.7977,1.638 -1.1436,2.471 l -4.9344,11.803 c -0.6424,1.722 -1.2707,3.48 -1.899,5.231 -0.3317,0.917 -0.6565,1.835 -0.9883,2.753 -1.5459,4.023 -2.8095,8.217 -4.0237,12.269 -0.3953,1.313 -0.7907,2.626 -1.193,3.932 l -0.6142,2.04 c -0.1271,0.43 -0.233,0.868 -0.3388,1.306 -0.0565,0.247 -0.1201,0.487 -0.1836,0.734 l -2.8308,11.372 -1.8424,9.389 c -0.0918,0.487 -0.1906,0.982 -0.2895,1.476 -0.1764,0.896 -0.3529,1.793 -0.5153,2.696 l -1.8283,12.651 c -0.1906,1.849 -0.3671,3.72 -0.5436,5.59 -0.0918,0.961 -0.1765,1.914 -0.2682,2.874 l -0.3954,4.242 c -0.0917,0.904 -0.127,1.829 -0.1623,2.725 -0.0212,0.508 -0.0424,1.01 -0.0706,1.518 l -0.3742,8.513 -1.2424,-0.056 0.3742,-8.521 c 0.0282,-0.501 0.0494,-1.002 0.0635,-1.496 0.0353,-0.911 0.0706,-1.857 0.1624,-2.796 l 0.3953,-4.242 c 0.0917,-0.96 0.1835,-1.913 0.2682,-2.866 0.1765,-1.878 0.353,-3.756 0.5436,-5.634 l 1.8354,-12.692 c 0.1624,-0.932 0.3388,-1.836 0.5224,-2.746 0.0988,-0.487 0.1976,-0.982 0.2894,-1.469 l 1.8566,-9.424 2.8378,-11.408 c 0.0635,-0.247 0.12,-0.48 0.1836,-0.72 0.1129,-0.458 0.2259,-0.917 0.3529,-1.369 l 0.6212,-2.047 c 0.4024,-1.306 0.7977,-2.619 1.1931,-3.925 1.2283,-4.073 2.4919,-8.295 4.052,-12.347 0.3247,-0.903 0.6565,-1.821 0.9883,-2.739 0.6282,-1.758 1.2636,-3.522 1.9201,-5.273 l 4.9415,-11.824 c 0.36,-0.862 0.7694,-1.716 1.1718,-2.535 0.2188,-0.452 0.4377,-0.896 0.6495,-1.348 l 3.6849,-7.702 c 0.5647,-1.235 1.2283,-2.449 1.8707,-3.628 l 5.1886,-9.565 c 0.2188,-0.417 0.4659,-0.812 0.72,-1.215 0.1271,-0.211 0.2612,-0.423 0.3883,-0.635 l 6.1062,-10.024 3.0143,-4.433 c 0.5577,-0.812 1.1083,-1.624 1.659,-2.443 1.0447,-1.539 2.0895,-3.085 3.1624,-4.61 l 7.73,-10.228 8.231,-9.841 c 1.25,-1.405 2.541,-2.796 3.784,-4.137 0.671,-0.72 1.341,-1.447 2.005,-2.174 l 2.901,-3.134 c 0.487,-0.544 1.017,-1.066 1.518,-1.546 l 7.61,-7.462 c 0.692,-0.706 1.447,-1.377 2.181,-2.019 0.332,-0.289 0.657,-0.579 0.981,-0.875 l 3.191,-2.838 c 3.219,-2.986 6.692,-5.775 10.059,-8.471 1.024,-0.819 2.048,-1.645 3.064,-2.471 0.205,-0.162 0.396,-0.318 0.586,-0.473 0.367,-0.296 0.727,-0.593 1.108,-0.868 l 10.342,-7.5324 10.709,-7.0522 11.034,-6.5299 c 0.416,-0.2329 0.826,-0.4518 1.242,-0.6706 0.219,-0.1129 0.438,-0.2329 0.657,-0.3459 l 9.431,-4.9838 c 0.416,-0.2189 0.84,-0.4165 1.271,-0.6213 0.225,-0.1058 0.451,-0.2047 0.67,-0.3176 l 8.323,-3.9038 c 1.08,-0.5082 2.195,-1.0377 3.339,-1.4825 1.271,-0.5153 2.549,-1.0447 3.826,-1.5742 3.918,-1.6236 7.97,-3.3108 12.072,-4.6803 l 4.002,-1.433 c 0.417,-0.1412 0.819,-0.2894 1.221,-0.4377 0.925,-0.3318 1.878,-0.6776 2.852,-0.953 l 11.21,-3.4096 5.196,-1.313 c 0.967,-0.24 1.927,-0.4871 2.887,-0.7271 1.765,-0.4518 3.593,-0.9177 5.408,-1.3201 l 8.372,-1.6942 c 0.494,-0.0918 0.981,-0.1977 1.468,-0.2965 0.897,-0.1836 1.822,-0.3742 2.746,-0.5224 l 4.215,-0.6424 c 0.967,-0.1482 1.934,-0.2965 2.901,-0.4447 1.814,-0.2824 3.692,-0.5718 5.542,-0.8189 l 12.749,-1.306 12.805,-0.6918 12.827,-0.0706 c 0.939,0.0071 1.885,0.0494 2.795,0.0989 0.495,0.0211 0.996,0.0494 1.49,0.0635 l 8.527,0.3812 c 0.643,0.0141 1.356,0.0706 2.168,0.1553 l 6.36,0.6 c 4.363,0.3177 8.761,0.9672 13.01,1.5884 1.313,0.1906 2.626,0.3882 3.939,0.5718 l 2.111,0.3106 10.497,2.0613 c 0.339,0.0706 0.678,0.1341 1.017,0.1977 1.052,0.2047 2.139,0.4165 3.198,0.7059 22.399,5.2168 43.958,13.0738 64.055,23.345 l 0.177,0.0918 0.092,0.1694 c 1.757,3.2825 3.494,6.6216 5.167,9.9182 l 1.835,3.6638 0.586,1.2848 2.153,4.8426 c 13.003,7.8783 25.174,16.7583 36.179,26.4013 11.238,9.905 21.693,20.853 31.054,32.544 9.36,11.676 17.775,24.262 25.004,37.4 l 4.059,7.666 c 0.402,0.755 0.819,1.532 1.172,2.337 l 4.765,10.158 4.292,10.412 c 0.374,0.854 0.684,1.744 0.988,2.612 l 2.852,7.977 c 9.706,28.625 14.337,58.423 13.765,88.58 -0.677,29.755 -6.572,59.333 -17.528,87.902 z"
         fill="white"
         fill-opacity="0.25"
         id="path141"
         style="fill:#268e31;fill-opacity:1" />
    </g>
    <path
       d="m 630.667,22.6673 c -4.753,0 -9.097,0 -13.334,0 0,-4.2373 0,-8.5885 0,-13.33462 L 608,0 c 0,12.6436 0,22.0218 0,32 9.978,0 19.356,0 32,0 z"
       fill="white"
       fill-opacity="0.25"
       id="path142"
       style="display:none;fill:#268e31;fill-opacity:1" />
    <path
       d="m 9.33273,617.333 c 4.75367,0 9.09727,0 13.33457,0 0,4.237 0,8.588 0,13.334 L 32,640 c 0,-12.644 0,-22.022 0,-32 -9.9782,0 -19.3564,0 -32,0 z"
       fill="white"
       fill-opacity="0.25"
       id="path143"
       style="display:none;fill:#268e31;fill-opacity:1" />
  </g>
  <defs
     id="defs144">
    <clipPath
       id="clip0_113_346">
      <rect
         width="640"
         height="640"
         fill="#ffffff"
         id="rect143"
         x="0"
         y="0" />
    </clipPath>
    <clipPath
       id="clip1_113_346">
      <rect
         width="640"
         height="639.86603"
         fill="#ffffff"
         id="rect144"
         x="0"
         y="0" />
    </clipPath>
  </defs>
</svg>
