<?xml version="1.0" encoding="UTF-8" standalone="no"?>
<svg
   width="1589"
   height="847"
   viewBox="0 0 1589 847"
   fill="none"
   version="1.1"
   id="svg394"
   xmlns="http://www.w3.org/2000/svg"
   xmlns:svg="http://www.w3.org/2000/svg">
  <rect
     width="1589"
     height="847"
     fill="#000000"
     id="rect1"
     ry="90.542969"
     x="0"
     y="0"
     style="fill:#030402;fill-opacity:0;stroke:#06d631;stroke-opacity:1;filter:url(#filter597)"
     rx="90.542969" />
  <path
     d="m 793.001,695 c 2.761,0 5,-2.462 5,-5.5 0,-3.038 -2.239,-5.5 -5,-5.5 -2.762,0 -5,2.462 -5,5.5 0,3.038 2.238,5.5 5,5.5 z"
     stroke="url(#paint0_radial_1_111)"
     stroke-miterlimit="10"
     id="path1"
     style="stroke:#06d631;stroke-opacity:1" />
  <path
     d="m 793.001,595 c 2.761,0 5,-2.462 5,-5.5 0,-3.038 -2.239,-5.5 -5,-5.5 -2.762,0 -5,2.462 -5,5.5 0,3.038 2.238,5.5 5,5.5 z"
     stroke="url(#paint1_radial_1_111)"
     stroke-miterlimit="10"
     id="path2"
     style="stroke:#06d631;stroke-opacity:1" />
  <path
     d="m 793.001,263 c 2.761,0 5,-2.462 5,-5.5 0,-3.038 -2.239,-5.5 -5,-5.5 -2.762,0 -5,2.462 -5,5.5 0,3.038 2.238,5.5 5,5.5 z"
     stroke="url(#paint2_radial_1_111)"
     stroke-miterlimit="10"
     id="path3"
     style="stroke:#06d631;stroke-opacity:1" />
  <path
     d="m 793.001,163 c 2.761,0 5,-2.462 5,-5.5 0,-3.038 -2.239,-5.5 -5,-5.5 -2.762,0 -5,2.462 -5,5.5 0,3.038 2.238,5.5 5,5.5 z"
     stroke="url(#paint3_radial_1_111)"
     stroke-miterlimit="10"
     id="path4"
     style="stroke:#06d631;stroke-opacity:1" />
  <path
     d="m 522.001,423 c 0,2.761 2.462,5 5.5,5 3.037,0 5.5,-2.239 5.5,-5 0,-2.761 -2.463,-5 -5.5,-5 -3.038,0 -5.5,2.239 -5.5,5 z"
     stroke="url(#paint4_radial_1_111)"
     stroke-miterlimit="10"
     id="path5"
     style="stroke:#06d631;stroke-opacity:1" />
  <path
     d="m 622.001,423 c 0,2.761 2.462,5 5.5,5 3.037,0 5.5,-2.239 5.5,-5 0,-2.761 -2.463,-5 -5.5,-5 -3.038,0 -5.5,2.239 -5.5,5 z"
     stroke="url(#paint5_radial_1_111)"
     stroke-miterlimit="10"
     id="path6"
     style="stroke:#06d631;stroke-opacity:1" />
  <path
     d="m 954.001,423 c 0,2.761 2.462,5 5.5,5 3.037,0 5.5,-2.239 5.5,-5 0,-2.761 -2.463,-5 -5.5,-5 -3.038,0 -5.5,2.239 -5.5,5 z"
     stroke="url(#paint6_radial_1_111)"
     stroke-miterlimit="10"
     id="path7"
     style="stroke:#06d631;stroke-opacity:1" />
  <path
     d="m 1054,423 c 0,2.761 2.46,5 5.5,5 3.04,0 5.5,-2.239 5.5,-5 0,-2.761 -2.46,-5 -5.5,-5 -3.04,0 -5.5,2.239 -5.5,5 z"
     stroke="url(#paint7_radial_1_111)"
     stroke-miterlimit="10"
     id="path8"
     style="stroke:#06d631;stroke-opacity:1" />
  <path
     d="m 1058.09,618.729 c 0,2.094 1.7,3.792 3.79,3.792 2.1,0 3.8,-1.698 3.8,-3.792 0,-2.095 -1.7,-3.793 -3.8,-3.793 -2.09,0 -3.79,1.698 -3.79,3.793 z"
     stroke="url(#paint8_radial_1_111)"
     stroke-miterlimit="10"
     id="path9"
     style="stroke:#06d631;stroke-opacity:1" />
  <path
     d="m 428.219,215 0.498,7.668 c 0.122,1.944 0.659,3.84 1.577,5.559 0.917,1.719 2.192,3.222 3.74,4.406 l 80.163,61.73 c 3.113,2.402 5.679,5.439 7.527,8.909 1.848,3.47 2.935,7.293 3.189,11.216 l 4.763,74.104"
     stroke="url(#paint9_radial_1_111)"
     stroke-miterlimit="10"
     id="path10"
     style="stroke:#06d631;stroke-opacity:1" />
  <path
     d="m 430.587,626.728 c 0,2.094 -1.698,3.792 -3.793,3.792 -2.096,0 -3.794,-1.698 -3.794,-3.792 0,-2.095 1.698,-3.793 3.794,-3.793 2.095,0 3.793,1.698 3.793,3.793 z"
     stroke="url(#paint10_radial_1_111)"
     stroke-miterlimit="10"
     id="path11"
     style="stroke:#06d631;stroke-opacity:1" />
  <path
     d="m 427,623.443 0.498,-7.668 c 0.122,-1.945 0.66,-3.84 1.577,-5.56 0.917,-1.719 2.192,-3.221 3.74,-4.406 l 80.302,-61.73 c 3.108,-2.404 5.669,-5.442 7.511,-8.912 1.843,-3.469 2.926,-7.292 3.177,-11.212 l 4.819,-74.159"
     stroke="url(#paint11_radial_1_111)"
     stroke-miterlimit="10"
     id="path12"
     style="stroke:#06d631;stroke-opacity:1" />
  <path
     d="m 531.219,215 0.498,7.668 c 0.122,1.944 0.659,3.84 1.577,5.559 0.917,1.719 2.192,3.222 3.74,4.406 l 80.163,61.73 c 3.113,2.402 5.679,5.439 7.527,8.909 1.848,3.47 2.935,7.293 3.189,11.216 l 4.763,74.104"
     stroke="url(#paint12_radial_1_111)"
     stroke-miterlimit="10"
     id="path13"
     style="stroke:#06d631;stroke-opacity:1" />
  <path
     d="m 533.587,626.728 c 0,2.094 -1.698,3.792 -3.793,3.792 -2.096,0 -3.794,-1.698 -3.794,-3.792 0,-2.095 1.698,-3.793 3.794,-3.793 2.095,0 3.793,1.698 3.793,3.793 z"
     stroke="url(#paint13_radial_1_111)"
     stroke-miterlimit="10"
     id="path14"
     style="stroke:#06d631;stroke-opacity:1" />
  <path
     d="m 530,623.443 0.498,-7.668 c 0.122,-1.945 0.66,-3.84 1.577,-5.56 0.917,-1.719 2.192,-3.221 3.74,-4.406 l 80.302,-61.73 c 3.108,-2.404 5.669,-5.442 7.511,-8.912 1.843,-3.469 2.926,-7.292 3.177,-11.212 l 4.819,-74.159"
     stroke="url(#paint14_radial_1_111)"
     stroke-miterlimit="10"
     id="path15"
     style="stroke:#06d631;stroke-opacity:1" />
  <path
     d="m 1161.46,215 -0.5,7.668 c -0.12,1.944 -0.66,3.84 -1.58,5.559 -0.91,1.719 -2.19,3.222 -3.74,4.406 l -80.16,61.73 c -3.11,2.402 -5.68,5.439 -7.53,8.909 -1.84,3.47 -2.93,7.293 -3.19,11.216 l -4.76,74.104"
     stroke="url(#paint15_radial_1_111)"
     stroke-miterlimit="10"
     id="path16"
     style="stroke:#06d631;stroke-opacity:1" />
  <path
     d="m 1159.09,626.729 c 0,2.094 1.7,3.792 3.79,3.792 2.1,0 3.8,-1.698 3.8,-3.792 0,-2.095 -1.7,-3.793 -3.8,-3.793 -2.09,0 -3.79,1.698 -3.79,3.793 z"
     stroke="url(#paint16_radial_1_111)"
     stroke-miterlimit="10"
     id="path17"
     style="stroke:#06d631;stroke-opacity:1" />
  <path
     d="m 1162.68,623.444 -0.5,-7.668 c -0.12,-1.945 -0.66,-3.84 -1.58,-5.559 -0.92,-1.72 -2.19,-3.222 -3.74,-4.407 l -80.3,-61.73 c -3.11,-2.404 -5.67,-5.442 -7.51,-8.912 -1.84,-3.47 -2.93,-7.292 -3.18,-11.212 l -4.82,-74.16"
     stroke="url(#paint17_radial_1_111)"
     stroke-miterlimit="10"
     id="path18"
     style="stroke:#06d631;stroke-opacity:1" />
  <path
     d="m 1060.46,219 -0.5,7.668 c -0.12,1.944 -0.66,3.84 -1.58,5.559 -0.91,1.719 -2.19,3.222 -3.74,4.406 l -80.16,61.73 c -3.113,2.402 -5.679,5.439 -7.527,8.909 -1.848,3.47 -2.935,7.293 -3.19,11.216 l -4.762,74.104"
     stroke="url(#paint18_radial_1_111)"
     stroke-miterlimit="10"
     id="path19"
     style="stroke:#06d631;stroke-opacity:1" />
  <path
     d="m 1061.68,627.444 -0.5,-7.668 c -0.12,-1.945 -0.66,-3.84 -1.58,-5.559 -0.92,-1.72 -2.19,-3.222 -3.74,-4.407 l -80.301,-61.73 c -3.108,-2.404 -5.668,-5.442 -7.511,-8.912 -1.843,-3.47 -2.926,-7.292 -3.177,-11.212 l -4.818,-74.16"
     stroke="url(#paint19_radial_1_111)"
     stroke-miterlimit="10"
     id="path20"
     style="stroke:#06d631;stroke-opacity:1" />
  <g
     filter="url(#filter0_f_1_111)"
     id="g21"
     style="display:none;stroke:#06d631;stroke-opacity:1">
    <path
       fill-rule="evenodd"
       clip-rule="evenodd"
       d="m 754.599,60.4069 c 0,0.6164 0.851,0.7811 1.081,0.2092 l 0.554,-1.3773 v 43.5782 c 0,0.063 -0.012,0.126 -0.035,0.184 l -19.442,49.176 -1.827,4.484 c -0.041,0.102 -0.066,0.211 -0.072,0.321 l -19.073,48.243 c -0.069,0.176 -0.105,0.363 -0.105,0.551 v 31.76 h 1 v -31.76 c 0,-0.063 0.012,-0.125 0.035,-0.183 l 18.141,-45.887 v 11.303 c 0,1.097 1.512,1.394 1.926,0.377 l 15.342,-37.647 c 0.049,-0.12 0.074,-0.248 0.074,-0.377 v -13.971 c 0,-0.633 -0.503,-0.999 -1.008,-1.001 l 5.939,-15.021 c 0.069,-0.176 0.105,-0.363 0.105,-0.552 V 56.8779 h -0.05 l 0.043,-0.1076 c 0.027,-0.0665 0.04,-0.1375 0.04,-0.2092 0,-0.6164 -0.85,-0.7811 -1.08,-0.2092 l -1.547,3.8458 c -0.027,0.0665 -0.041,0.1375 -0.041,0.2092 z m -18.743,96.7701 1.83,-4.628 13.512,-33.158 v 13.971 l -15.342,37.647 z m 326.824,462.234 0.49,7.667 -0.99,0.065 -0.5,-7.668 v -0.002 c -0.12,-1.873 -0.64,-3.699 -1.52,-5.355 -0.88,-1.656 -2.11,-3.103 -3.6,-4.244 v -10e-4 l -80.306,-61.73 -10e-4,-10e-4 c -3.164,-2.447 -5.771,-5.54 -7.647,-9.073 -1.876,-3.532 -2.979,-7.424 -3.235,-11.415 l -4.818,-74.159 0.998,-0.065 4.818,74.16 v 0 c 0.247,3.85 1.31,7.603 3.12,11.01 1.81,3.407 4.324,6.391 7.376,8.751 l 80.295,61.729 c 1.61,1.227 2.93,2.785 3.88,4.568 0.95,1.782 1.51,3.747 1.64,5.762 z M 735.856,256.494 751.198,217.687 v 13.632 l -15.342,37.647 z m 16.342,-39.146 c 0,-0.42 -0.221,-0.723 -0.518,-0.879 l 5.914,-14.959 c 0.092,-0.234 0.14,-0.484 0.14,-0.735 v -45.641 l 1.382,-3.646 c 0.042,-0.113 0.064,-0.233 0.064,-0.354 v -1.526 c 0,-1.111 -1.541,-1.393 -1.935,-0.354 l -4,10.554 c -0.043,0.113 -0.065,0.233 -0.065,0.354 v 1.526 c 0,1.111 1.542,1.393 1.936,0.354 l 0.618,-1.631 v 40.364 l -40.413,102.223 c -0.093,0.234 -0.141,0.484 -0.141,0.736 v 23.202 c -27.59,22.743 -45.18,57.182 -45.18,95.73 0,38.464 17.513,72.838 45,95.582 v 22.893 c 0,0.251 0.048,0.501 0.14,0.735 L 755.553,644.1 v 40.363 l -0.618,-1.631 C 754.541,681.793 753,682.075 753,683.186 v 1.526 c 0,0.121 0.022,0.241 0.065,0.354 l 4,10.554 c 0.394,1.039 1.935,0.757 1.935,-0.354 v -1.526 c 0,-0.121 -0.022,-0.241 -0.065,-0.354 l -1.382,-3.646 V 644.1 c 0,-0.252 -0.047,-0.502 -0.14,-0.736 l -5.914,-14.959 c 0.297,-0.156 0.519,-0.459 0.519,-0.879 v -13.971 c 0,-0.129 -0.025,-0.257 -0.074,-0.377 l -15.342,-37.647 c -0.414,-1.017 -1.926,-0.72 -1.926,0.377 v 9.943 L 717,541.141 v -21.273 c 9.253,7.34 19.579,13.387 30.704,17.867 l 7.739,14.729 c 0.037,0.071 0.057,0.151 0.057,0.232 v 41.053 l -0.891,-2.147 c -0.351,-0.845 -1.609,-0.594 -1.609,0.321 0,0.11 0.022,0.219 0.064,0.321 l 2.327,5.606 c 0.03,0.072 0.067,0.137 0.109,0.193 v 0.623 h 1 v -0.37 c 0.281,-0.119 0.5,-0.385 0.5,-0.767 0,-0.11 -0.022,-0.219 -0.064,-0.321 l -0.436,-1.05 v -43.462 c 0,-0.243 -0.059,-0.482 -0.172,-0.698 l -7.198,-13.699 c 13.914,5.403 29.046,8.367 44.87,8.367 15.2,0 29.762,-2.735 43.22,-7.74 l -7.127,13.454 c -0.115,0.217 -0.175,0.458 -0.175,0.703 v 44.565 c -0.065,0.135 -0.098,0.282 -0.098,0.432 v 0.25 c 0,0.167 0.036,0.316 0.098,0.445 v 0.189 h 0.121 c 0.408,0.496 1.278,0.529 1.655,-0.148 l 3.359,-6.041 c 0.083,-0.149 0.126,-0.316 0.126,-0.486 v -0.249 c 0,-1.032 -1.372,-1.388 -1.873,-0.486 l -2.388,4.292 v -42.763 c 0,-0.082 0.02,-0.162 0.058,-0.234 l 7.66,-14.459 c 11.284,-4.356 21.772,-10.314 31.184,-17.597 v 20.806 l -17.676,44.711 v -9.943 c 0,-1.098 -1.512,-1.394 -1.926,-0.378 l -15.342,37.648 c -0.049,0.12 -0.074,0.248 -0.074,0.377 v 13.971 c 0,0.42 0.221,0.723 0.518,0.879 l -5.914,14.959 c -0.092,0.234 -0.14,0.484 -0.14,0.735 v 45.641 l -1.382,3.646 c -0.042,0.113 -0.064,0.233 -0.064,0.354 v 1.526 c 0,1.111 1.541,1.393 1.935,0.354 l 4,-10.554 c 0.043,-0.113 0.065,-0.233 0.065,-0.355 v -1.525 c 0,-1.111 -1.542,-1.394 -1.936,-0.354 l -0.618,1.631 V 644.558 L 871.68,542.335 c 0.092,-0.235 0.14,-0.484 0.14,-0.736 V 519.213 C 899.985,496.482 918,461.678 918,422.666 918,383.738 900.062,349 872,326.266 v -22.074 c 0,-0.251 -0.047,-0.501 -0.14,-0.735 L 831.447,201.233 V 160.87 l 0.618,1.631 c 0.394,1.039 1.935,0.757 1.935,-0.354 v -1.526 c 0,-0.121 -0.022,-0.241 -0.065,-0.354 l -4,-10.554 c -0.394,-1.04 -1.935,-0.757 -1.935,0.354 v 1.526 c 0,0.121 0.022,0.241 0.065,0.354 l 1.382,3.646 v 45.64 c 0,0.252 0.047,0.501 0.14,0.736 l 5.914,14.958 c -0.297,0.157 -0.519,0.46 -0.519,0.88 v 13.97 c 0,0.13 0.025,0.258 0.074,0.378 l 15.342,37.647 c 0.414,1.016 1.926,0.72 1.926,-0.377 v -9.943 L 870,304.192 v 20.488 c -9.347,-7.261 -19.761,-13.213 -30.967,-17.583 l -7.476,-14.228 c -0.037,-0.071 -0.057,-0.151 -0.057,-0.232 v -41.053 l 0.891,2.147 c 0.351,0.845 1.609,0.594 1.609,-0.321 0,-0.11 -0.022,-0.219 -0.064,-0.321 l -2.327,-5.606 c -0.03,-0.072 -0.067,-0.137 -0.109,-0.194 v -0.623 h -1 v 0.371 c -0.281,0.119 -0.5,0.385 -0.5,0.767 0,0.11 0.022,0.219 0.064,0.32 l 0.436,1.051 v 43.462 c 0,0.243 0.059,0.482 0.172,0.697 l 6.947,13.222 c -13.569,-5.1 -28.268,-7.89 -43.619,-7.89 -15.552,0 -30.435,2.863 -44.151,8.091 -0.073,-0.026 -0.149,-0.045 -0.226,-0.054 l 7.284,-13.751 c 0.115,-0.216 0.175,-0.457 0.175,-0.702 v -44.565 c 0.065,-0.135 0.098,-0.283 0.098,-0.433 v -0.249 c 0,-0.167 -0.036,-0.316 -0.098,-0.445 v -0.189 h -0.121 c -0.408,-0.497 -1.278,-0.53 -1.654,0.148 l -3.36,6.041 c -0.083,0.148 -0.126,0.316 -0.126,0.486 v 0.249 c 0,1.032 1.372,1.388 1.873,0.486 l 2.388,-4.292 v 42.763 c 0,0.082 -0.02,0.162 -0.058,0.234 l -7.922,14.954 c -11.204,4.467 -21.604,10.521 -30.922,17.884 v -21.588 l 17.676,-44.711 v 9.943 c 0,1.097 1.512,1.394 1.926,0.377 l 15.342,-37.647 c 0.049,-0.12 0.074,-0.248 0.074,-0.377 z M 715.18,334.85 v 0.644 h 2 v -2.4 c 7.956,-6.83 16.832,-12.617 26.417,-17.152 l -8.606,16.246 -7.602,13.921 c -0.08,0.147 -0.122,0.312 -0.122,0.479 v 0.181 l -25.351,47.854 c -0.114,0.216 -0.174,0.458 -0.174,0.702 v 22.341 H 701.5 v 31.765 c 0,0.243 0.059,0.482 0.172,0.697 L 727,498.332 v 0.092 c 0,0.167 0.042,0.333 0.123,0.48 l 4.351,7.943 11.753,22.368 C 733.711,524.672 724.9,518.893 717,512.084 v -2.703 h -2 v 0.939 c -23.947,-21.596 -39,-52.867 -39,-87.654 0,-34.873 15.128,-66.214 39.18,-87.816 z m 30.247,195.388 c 1.181,0.533 2.372,1.049 3.573,1.544 v -9.873 l -21,-38.336 v 14.512 l 4.356,8.29 z m 40.444,10.056 c -12.196,-3.522 -21.115,-14.769 -21.115,-28.099 0,-1.629 0.133,-3.227 0.389,-4.783 -13.645,-4.7 -25.782,-12.64 -35.491,-22.901 l 20.223,36.918 c 0.081,0.147 0.123,0.313 0.123,0.48 v 10.281 c 11.227,4.514 23.308,7.353 35.933,8.205 -0.021,-0.034 -0.041,-0.067 -0.062,-0.101 z m 14.878,-1.698 c -0.459,0.117 -0.923,0.222 -1.39,0.316 0.657,-1.006 1.04,-2.207 1.04,-3.498 0,-0.278 -0.018,-0.551 -0.052,-0.819 0.347,-0.099 0.692,-0.205 1.032,-0.319 0.056,0.367 0.085,0.743 0.085,1.126 0,1.143 -0.257,2.225 -0.715,3.194 z m -13.148,-3.182 c 0,1.291 0.383,2.492 1.04,3.498 -0.477,-0.096 -0.949,-0.203 -1.417,-0.323 -0.456,-0.967 -0.712,-2.047 -0.712,-3.187 0,-0.385 0.03,-0.764 0.086,-1.133 0.348,0.116 0.7,0.225 1.055,0.326 -0.034,0.268 -0.052,0.541 -0.052,0.819 z m 14.47,4.936 0.029,-0.048 c 12.211,-3.512 21.144,-14.767 21.144,-28.107 0,-1.629 -0.133,-3.227 -0.39,-4.783 12.393,-4.268 23.541,-11.209 32.757,-20.133 l -18.993,34.782 c -0.08,0.146 -0.122,0.311 -0.122,0.479 v 10.243 c -10.807,4.173 -22.382,6.801 -34.454,7.614 z m 1.069,-2.483 c 0.211,-0.786 0.324,-1.612 0.324,-2.465 0,-0.635 -0.063,-1.256 -0.182,-1.856 8.236,-3.585 13.994,-11.796 13.994,-21.351 0,-1.022 -0.066,-2.028 -0.194,-3.015 1.295,-0.348 2.578,-0.725 3.848,-1.13 0.207,1.351 0.314,2.735 0.314,4.145 0,11.84 -7.553,21.916 -18.104,25.672 z m -4.973,-10.972 c 6.411,-1.814 11.109,-7.708 11.109,-14.7 0,-0.431 -0.018,-0.858 -0.053,-1.28 -4.946,0.856 -10.032,1.303 -15.223,1.303 -5.191,0 -10.277,-0.447 -15.223,-1.303 -0.035,0.422 -0.053,0.849 -0.053,1.28 0,6.986 4.69,12.877 11.094,14.696 1.258,-0.618 2.674,-0.965 4.17,-0.965 1.5,0 2.918,0.349 4.179,0.969 z m -13.333,10.963 c -0.21,-0.783 -0.322,-1.607 -0.322,-2.456 0,-0.639 0.064,-1.263 0.184,-1.866 -8.224,-3.59 -13.972,-11.794 -13.972,-21.341 0,-1.022 0.066,-2.028 0.194,-3.015 -1.295,-0.348 -2.578,-0.725 -3.848,-1.131 -0.207,1.352 -0.314,2.736 -0.314,4.146 0,11.83 7.541,21.899 18.078,25.663 z m 52.662,-15.318 20.65,-37.818 c 0.18,-0.188 0.358,-0.377 0.535,-0.567 l 0.052,-0.055 v 14.216 l -7.605,14.355 -9.924,18.175 c -1.226,0.536 -2.462,1.051 -3.708,1.545 z m 45.076,-98.893 c 0,22.905 -8.695,43.78 -22.964,59.503 0.079,0.14 0.125,0.307 0.125,0.497 v 12.781 L 884.2,450.242 c 0.038,-0.073 0.058,-0.153 0.058,-0.234 v -31.702 h 0.242 v -22.404 c 0,-0.048 -0.007,-0.096 -0.02,-0.141 -0.008,-0.024 -0.016,-0.048 -0.027,-0.071 l -0.005,-0.01 -0.005,-0.01 L 860,349.151 v 12.608 c 0,1.035 -1.38,1.389 -1.877,0.481 l -21,-38.336 C 837.042,323.757 837,323.591 837,323.423 v -10.677 c -13.324,-5.216 -27.827,-8.08 -43,-8.08 -15.361,0 -30.036,2.936 -43.496,8.275 v 9.852 c 0,0.168 -0.042,0.332 -0.122,0.479 l -21.237,38.893 c -0.497,0.909 -1.878,0.556 -1.878,-0.479 V 348.905 L 702.8,395.091 c -0.038,0.072 -0.058,0.153 -0.058,0.234 v 31.702 H 702.5 v 22.404 c 0,0.081 0.02,0.16 0.057,0.232 L 727,496.182 v -12.609 c 0,-0.571 0.42,-0.934 0.88,-0.993 -13.964,-15.656 -22.451,-36.304 -22.451,-58.933 0,-48.917 39.655,-88.572 88.571,-88.572 48.917,0 88.572,39.655 88.572,88.572 z m -39.496,106.362 c 9.691,-4.438 18.677,-10.15 26.744,-16.921 v -3.249 h 2 v 1.532 c 24.632,-21.627 40.18,-53.35 40.18,-88.705 0,-35.268 -15.473,-66.922 -40,-88.545 v 1.831 h -2 v -3.555 c -8.011,-6.752 -16.932,-12.456 -26.555,-16.903 l 12.081,22.991 4.351,7.944 c 0.081,0.147 0.123,0.312 0.123,0.48 v 0.092 l 25.328,48.203 c 0.113,0.216 0.172,0.455 0.172,0.698 v 31.764 h -0.242 v 22.342 c 0,0.244 -0.06,0.485 -0.174,0.702 l -25.351,47.854 v 0.18 c 0,0.168 -0.042,0.333 -0.122,0.48 l -7.602,13.921 z M 841.25,314.507 c -1.075,-0.47 -2.158,-0.925 -3.25,-1.364 v 10.28 l 21,38.336 v -14.511 l -4.355,-8.29 z m -91.746,-1.163 c -1.355,0.552 -2.698,1.129 -4.028,1.729 l -9.604,17.588 -7.605,14.356 v 14.669 l 21.237,-38.893 z m -43.075,110.303 c 0,38.322 24.616,70.895 58.898,82.769 2.682,-13.383 14.5,-23.465 28.673,-23.465 14.173,0 25.991,10.082 28.673,23.465 13.298,-4.606 25.142,-12.326 34.659,-22.289 l 0.523,-0.959 c 0.196,-0.358 0.528,-0.52 0.86,-0.522 14.198,-15.565 22.857,-36.271 22.857,-58.999 0,-48.365 -39.207,-87.572 -87.572,-87.572 -48.364,0 -87.571,39.207 -87.571,87.572 z m 64.639,84.538 c -1.288,-0.349 -2.564,-0.726 -3.828,-1.131 2.404,-12.588 13.471,-22.103 26.76,-22.103 13.289,0 24.356,9.515 26.759,22.103 -1.263,0.405 -2.54,0.782 -3.828,1.131 -1.9,-10.944 -11.444,-19.266 -22.931,-19.266 -11.487,0 -21.031,8.322 -22.932,19.266 z M 794,496.919 c 7.663,0 14.009,5.643 15.107,13.001 -4.907,0.853 -9.955,1.298 -15.107,1.298 -5.152,0 -10.2,-0.445 -15.107,-1.298 1.098,-7.358 7.444,-13.001 15.107,-13.001 z m -35.82,-345.785 -1.402,3.701 h -0.579 l 1.981,-5.227 z m -4,9.028 1.554,-4.098 v 1.525 l -1.554,4.099 z m 1.902,87.018 v 0.249 l -3.261,5.864 v -0.249 z m -39.547,392.101 18.141,45.887 v -11.303 c 0,-1.097 1.512,-1.394 1.926,-0.377 l 15.342,37.647 c 0.049,0.12 0.074,0.248 0.074,0.377 v 13.971 c 0,0.633 -0.503,0.999 -1.008,1.001 l 5.938,15.021 c 0.07,0.176 0.105,0.363 0.105,0.552 v 45.939 h -0.05 l 0.043,0.108 c 0.027,0.066 0.041,0.137 0.041,0.209 0,0.616 -0.85,0.781 -1.08,0.209 l -1.548,-3.846 c -0.026,-0.066 -0.04,-0.137 -0.04,-0.209 0,-0.616 0.85,-0.781 1.08,-0.209 l 0.554,1.377 v -43.578 c 0,-0.063 -0.012,-0.126 -0.035,-0.184 l -19.442,-49.179 -1.826,-4.481 c -0.042,-0.102 -0.066,-0.211 -0.072,-0.321 l -19.073,-48.243 c -0.069,-0.175 -0.105,-0.363 -0.105,-0.551 v -31.76 h 1 v 31.76 c 0,0.063 0.012,0.125 0.035,0.183 z m 19.141,34.584 v 13.833 l 1.828,4.624 13.514,33.161 v -13.971 z m 15.342,-46.678 -15.342,-38.807 v -12.472 l 15.342,37.647 z m 4.535,60.098 -1.553,-4.099 v 1.526 l 1.553,4.098 z m 0.466,2.754 h 0.578 L 758,693.74 v 1.526 z m 93.296,2.743 1.829,-4.626 v -13.832 l -15.342,37.647 v 13.971 z m -13.505,34.161 c -0.505,-0.002 -1.008,-0.368 -1.008,-1.001 v -13.971 c 0,-0.129 0.025,-0.257 0.074,-0.377 l 15.342,-37.647 c 0.414,-1.017 1.926,-0.72 1.926,0.377 v 11.303 l 18.141,-45.887 c 0.023,-0.058 0.035,-0.121 0.035,-0.184 v -31.76 h 1 v 31.76 c 0,0.189 -0.036,0.376 -0.105,0.552 l -19.073,48.243 c -0.006,0.11 -0.031,0.218 -0.072,0.321 l -1.827,4.482 -19.442,49.178 c -0.011,0.027 -0.019,0.056 -0.025,0.085 -0.003,0.015 -0.005,0.031 -0.007,0.047 -0.002,0.017 -0.003,0.034 -0.003,0.052 v 43.578 l 0.554,-1.377 c 0.23,-0.572 1.081,-0.408 1.081,0.209 0,0.072 -0.014,0.143 -0.041,0.209 l -1.547,3.846 c -0.23,0.572 -1.08,0.407 -1.08,-0.209 v -0.011 -0.014 c 0.001,-0.025 0.004,-0.051 0.009,-0.076 0.007,-0.037 0.017,-0.073 0.031,-0.108 l 0.043,-0.108 h -0.05 v -45.939 c 0,-0.189 0.036,-0.376 0.105,-0.552 z m 15.334,-138.104 -15.342,38.807 v -13.632 l 15.342,-37.647 z m -22.324,105.36 1.402,-3.701 h 0.579 l -1.981,5.227 z m 2.446,-4.93 v -1.525 l 1.554,-4.099 v 1.525 z m -0.348,-91.116 3.261,-5.864 v -0.249 l -3.261,5.863 z m 20.406,-440.518 -1.828,-4.623 -13.514,-33.162 v 13.97 l 15.342,37.648 z M 834.982,119.85 c 0,-0.633 0.503,-1 1.008,-1.001 l -5.938,-15.021 c -0.07,-0.176 -0.105,-0.363 -0.105,-0.552 V 57.3366 h 0.05 l -0.043,-0.1076 c -0.027,-0.0665 -0.041,-0.1375 -0.041,-0.2091 0,-0.6165 0.85,-0.7811 1.08,-0.2092 l 1.548,3.8458 c 0.026,0.0665 0.04,0.1375 0.04,0.2092 0,0.6164 -0.85,0.781 -1.08,0.2091 l -0.554,-1.3773 v 43.5785 c 0,0.063 0.012,0.125 0.035,0.184 l 19.443,49.18 1.825,4.48 c 0.042,0.102 0.066,0.211 0.073,0.321 l 19.072,48.243 c 0.069,0.175 0.105,0.362 0.105,0.551 v 31.76 h -1 v -31.76 c 0,-0.063 -0.012,-0.125 -0.035,-0.184 l -18.141,-45.886 v 11.303 c 0,1.097 -1.512,1.393 -1.926,0.377 l -15.342,-37.647 c -0.049,-0.12 -0.074,-0.248 -0.074,-0.378 z m 1,98.296 15.342,38.806 v 12.473 l -15.342,-37.648 z m -5.579,-62.852 h 0.578 L 829,150.067 v 1.526 z m 1.044,2.754 1.553,4.099 v -1.526 l -1.553,-4.099 z"
       fill="url(#paint20_radial_1_111)"
       id="path21"
       style="display:inline;fill:url(#paint20_radial_1_111);stroke:#06d631;stroke-opacity:1" />
  </g>
  <path
     d="m 735.356,171.343 v -13.971 c 0,-0.065 0.013,-0.129 0.037,-0.188 l 15.342,-37.648 c 0.207,-0.508 0.963,-0.36 0.963,0.189 v 13.97 c 0,0.065 -0.013,0.129 -0.037,0.189 l -15.342,37.647 c -0.207,0.508 -0.962,0.36 -0.963,-0.188 z"
     stroke="url(#paint21_radial_1_111)"
     id="path22"
     style="display:inline;stroke:#06d631;stroke-opacity:1" />
  <path
     d="m 755.099,60.7406 c 0,-0.0076 0.002,-0.0154 0.004,-0.0224 l 1.548,-3.8457 c 0.007,-0.0175 0.013,-0.0257 0.016,-0.0284 0.002,-0.0028 0.005,-0.0045 0.008,-0.0058 0.006,-0.0031 0.022,-0.0072 0.044,-0.0029 0.022,0.0043 0.035,0.0142 0.04,0.0195 10e-4,0.0021 0.003,0.0043 0.004,0.0078 0.002,0.0035 0.004,0.0135 0.004,0.0322 0,0.0077 -0.001,0.0154 -0.004,0.0225 l -1.547,3.8457 c -0.007,0.0173 -0.013,0.0256 -0.016,0.0283 -0.003,0.0027 -0.005,0.0036 -0.008,0.0049 -0.006,0.0031 -0.022,0.0082 -0.044,0.0039 -0.022,-0.0043 -0.035,-0.0143 -0.04,-0.0195 -0.002,-0.0022 -0.003,-0.0053 -0.005,-0.0088 -10e-4,-0.0039 -0.004,-0.0135 -0.004,-0.0313 z"
     stroke="url(#paint22_radial_1_111)"
     id="path23"
     style="stroke:#06d631;stroke-opacity:1" />
  <path
     d="m 716.18,237.87 v -31.76 c 0,-0.126 0.024,-0.251 0.07,-0.368 l 40.414,-102.223 c 0.046,-0.118 0.07,-0.242 0.07,-0.368 V 57.2115"
     stroke="url(#paint23_radial_1_111)"
     id="path24"
     style="stroke:#06d631;stroke-opacity:1" />
  <path
     d="m 735.356,269.3 v -13.971 c 0,-0.064 0.013,-0.129 0.037,-0.188 l 15.342,-37.648 c 0.207,-0.508 0.963,-0.36 0.963,0.189 v 13.97 c 0,0.065 -0.013,0.129 -0.037,0.189 l -15.342,37.647 c -0.207,0.508 -0.963,0.36 -0.963,-0.188 z"
     stroke="url(#paint24_radial_1_111)"
     id="path25"
     style="stroke:#06d631;stroke-opacity:1" />
  <path
     d="m 753.68,162.022 v -1.526 c 0,-0.06 0.011,-0.121 0.033,-0.177 l 4,-10.554 c 0.197,-0.52 0.967,-0.379 0.967,0.177 v 1.525 c 0,0.061 -0.01,0.121 -0.032,0.178 l -4,10.553 c -0.197,0.52 -0.967,0.379 -0.968,-0.176 z"
     stroke="url(#paint25_radial_1_111)"
     id="path26"
     style="stroke:#06d631;stroke-opacity:1" />
  <path
     d="m 716.18,335.827 v -31.76 c 0,-0.126 0.024,-0.25 0.07,-0.368 l 40.414,-102.223 c 0.046,-0.117 0.07,-0.242 0.07,-0.368 v -45.939"
     stroke="url(#paint26_radial_1_111)"
     stroke-width="2"
     id="path27"
     style="stroke:#06d631;stroke-opacity:1" />
  <path
     d="m 727.767,362.019 v -15.097 c 0,-0.083 0.021,-0.166 0.061,-0.24 l 21.238,-38.892 c 0.248,-0.455 0.938,-0.278 0.938,0.24 v 15.096 c 0,0.084 -0.02,0.167 -0.06,0.241 l -21.239,38.891 c -0.248,0.455 -0.938,0.279 -0.938,-0.239 z"
     stroke="url(#paint27_radial_1_111)"
     id="path28"
     style="stroke:#06d631;stroke-opacity:1" />
  <path
     d="m 752.321,253.626 v -0.249 c 0,-0.085 0.022,-0.169 0.063,-0.243 l 3.359,-6.04 c 0.251,-0.451 0.938,-0.273 0.938,0.243 v 0.249 c 0,0.085 -0.022,0.169 -0.064,0.243 l -3.36,6.04 c -0.235,0.423 -0.852,0.293 -0.929,-0.15 z"
     stroke="url(#paint28_radial_1_111)"
     id="path29"
     style="stroke:#06d631;stroke-opacity:1" />
  <path
     d="m 702.242,427.361 v -31.702 c 0,-0.163 0.04,-0.324 0.116,-0.468 l 54.108,-102.139 c 0.076,-0.144 0.116,-0.305 0.116,-0.468 v -45.882"
     stroke="url(#paint29_radial_1_111)"
     id="path30"
     style="stroke:#06d631;stroke-opacity:1" />
  <path
     d="m 735.176,674.199 v 13.97 c 0,0.065 0.013,0.129 0.037,0.189 l 15.342,37.647 c 0.207,0.508 0.963,0.36 0.963,-0.188 v -13.971 c 0,-0.065 -0.013,-0.129 -0.037,-0.188 L 736.139,674.01 c -0.207,-0.508 -0.963,-0.36 -0.963,0.189 z"
     stroke="url(#paint30_radial_1_111)"
     id="path31"
     style="stroke:#06d631;stroke-opacity:1" />
  <path
     d="m 754.919,784.801 c 0,0.007 10e-4,0.015 0.004,0.022 l 1.548,3.846 c 0.007,0.017 0.013,0.025 0.015,0.028 0.003,0.003 0.006,0.005 0.008,0.006 0.007,0.003 0.022,0.007 0.044,0.003 0.022,-0.004 0.035,-0.014 0.04,-0.02 0.002,-0.002 0.004,-0.004 0.005,-0.007 10e-4,-0.004 0.004,-0.014 0.004,-0.033 0,-0.007 -10e-4,-0.015 -0.004,-0.022 l -1.548,-3.846 c -0.007,-0.017 -0.013,-0.025 -0.015,-0.028 -0.003,-0.003 -0.006,-0.004 -0.008,-0.005 -0.007,-0.003 -0.022,-0.008 -0.044,-0.004 -0.022,0.004 -0.036,0.014 -0.04,0.02 -0.002,0.002 -0.004,0.005 -0.005,0.008 -0.002,0.004 -0.004,0.014 -0.004,0.032 z"
     stroke="url(#paint31_radial_1_111)"
     id="path32"
     style="stroke:#06d631;stroke-opacity:1" />
  <path
     d="m 716,607.671 v 31.76 c 0,0.126 0.024,0.251 0.07,0.368 l 40.413,102.224 c 0.047,0.117 0.07,0.241 0.07,0.367 v 45.94"
     stroke="url(#paint32_radial_1_111)"
     id="path33"
     style="stroke:#06d631;stroke-opacity:1" />
  <path
     d="m 735.176,576.241 v 13.971 c 0,0.065 0.013,0.129 0.037,0.189 l 15.342,37.647 c 0.207,0.508 0.963,0.36 0.963,-0.188 v -13.971 c 0,-0.065 -0.013,-0.129 -0.037,-0.189 l -15.342,-37.647 c -0.207,-0.508 -0.963,-0.36 -0.963,0.188 z"
     stroke="url(#paint33_radial_1_111)"
     id="path34"
     style="stroke:#06d631;stroke-opacity:1" />
  <path
     d="m 753.5,683.52 v 1.525 c 0,0.06 0.011,0.121 0.032,0.178 l 4,10.553 c 0.197,0.52 0.968,0.379 0.968,-0.176 v -1.526 c 0,-0.06 -0.011,-0.121 -0.032,-0.178 l -4,-10.553 c -0.197,-0.52 -0.968,-0.379 -0.968,0.177 z"
     stroke="url(#paint34_radial_1_111)"
     id="path35"
     style="stroke:#06d631;stroke-opacity:1" />
  <path
     d="m 716,509.714 v 31.76 c 0,0.126 0.024,0.251 0.07,0.368 l 40.413,102.223 c 0.047,0.118 0.07,0.242 0.07,0.368 v 45.939"
     stroke="url(#paint35_radial_1_111)"
     stroke-width="2"
     id="path36"
     style="stroke:#06d631;stroke-opacity:1" />
  <path
     d="m 727.5,483.907 v 14.85 c 0,0.084 0.021,0.167 0.062,0.24 l 21,38.336 c 0.248,0.454 0.938,0.277 0.938,-0.24 v -14.85 c 0,-0.084 -0.021,-0.166 -0.062,-0.24 l -21,-38.336 c -0.248,-0.454 -0.938,-0.277 -0.938,0.24 z"
     stroke="url(#paint36_radial_1_111)"
     id="path37"
     style="stroke:#06d631;stroke-opacity:1" />
  <path
     d="m 753.5,592.257 c 0,0.044 0.008,0.088 0.025,0.129 l 2.327,5.605 c 0.142,0.34 0.648,0.239 0.648,-0.129 0,-0.044 -0.009,-0.088 -0.025,-0.129 l -2.328,-5.605 c -0.141,-0.34 -0.647,-0.239 -0.647,0.129 z"
     stroke="url(#paint37_radial_1_111)"
     id="path38"
     style="stroke:#06d631;stroke-opacity:1" />
  <path
     d="m 702,418 v 31.764 c 0,0.162 0.039,0.322 0.115,0.465 l 53.77,102.336 c 0.076,0.143 0.115,0.303 0.115,0.465 V 599"
     stroke="url(#paint38_radial_1_111)"
     id="path39"
     style="stroke:#06d631;stroke-opacity:1" />
  <path
     d="m 851.644,674.657 v 13.971 c 0,0.065 -0.013,0.129 -0.037,0.188 l -15.342,37.648 c -0.207,0.508 -0.963,0.36 -0.963,-0.189 v -13.97 c 0,-0.065 0.013,-0.129 0.037,-0.189 l 15.342,-37.647 c 0.207,-0.508 0.962,-0.36 0.963,0.188 z"
     stroke="url(#paint39_radial_1_111)"
     id="path40"
     style="stroke:#06d631;stroke-opacity:1" />
  <path
     d="m 831.901,785.259 c 0,0.008 -0.002,0.016 -0.004,0.023 l -1.548,3.846 c -0.007,0.017 -0.013,0.025 -0.016,0.028 -0.002,0.003 -0.005,0.004 -0.008,0.006 -0.006,0.003 -0.022,0.007 -0.044,0.003 -0.022,-0.005 -0.035,-0.015 -0.04,-0.02 -10e-4,-0.002 -0.003,-0.004 -0.004,-0.008 -0.002,-0.003 -0.004,-0.013 -0.004,-0.032 0,-0.008 0.001,-0.015 0.004,-0.022 l 1.547,-3.846 c 0.007,-0.017 0.014,-0.026 0.016,-0.028 0.003,-0.003 0.005,-0.004 0.008,-0.005 0.006,-0.003 0.022,-0.008 0.044,-0.004 0.022,0.004 0.035,0.014 0.04,0.019 0.002,0.002 0.003,0.006 0.005,0.009 10e-4,0.004 0.004,0.014 0.004,0.031 z"
     stroke="url(#paint40_radial_1_111)"
     id="path41"
     style="stroke:#06d631;stroke-opacity:1" />
  <path
     d="m 870.82,608.13 v 31.76 c 0,0.126 -0.024,0.251 -0.07,0.368 l -40.414,102.223 c -0.046,0.118 -0.07,0.242 -0.07,0.368 v 45.94"
     stroke="url(#paint41_radial_1_111)"
     id="path42"
     style="stroke:#06d631;stroke-opacity:1" />
  <path
     d="m 851.644,576.7 v 13.971 c 0,0.064 -0.013,0.128 -0.037,0.188 l -15.342,37.648 c -0.207,0.508 -0.963,0.36 -0.963,-0.189 v -13.97 c 0,-0.065 0.013,-0.129 0.037,-0.189 l 15.342,-37.647 c 0.207,-0.508 0.962,-0.36 0.963,0.188 z"
     stroke="url(#paint42_radial_1_111)"
     id="path43"
     style="stroke:#06d631;stroke-opacity:1" />
  <path
     d="m 833.32,683.978 v 1.526 c 0,0.06 -0.011,0.121 -0.033,0.177 l -4,10.554 c -0.197,0.52 -0.967,0.379 -0.967,-0.177 v -1.525 c 0,-0.061 0.01,-0.121 0.032,-0.178 l 4,-10.553 c 0.197,-0.52 0.967,-0.379 0.968,0.176 z"
     stroke="url(#paint43_radial_1_111)"
     id="path44"
     style="stroke:#06d631;stroke-opacity:1" />
  <path
     d="m 870.82,510.173 v 31.76 c 0,0.126 -0.024,0.25 -0.07,0.368 l -40.414,102.223 c -0.046,0.117 -0.07,0.242 -0.07,0.368 v 45.939"
     stroke="url(#paint44_radial_1_111)"
     stroke-width="2"
     id="path45"
     style="stroke:#06d631;stroke-opacity:1" />
  <path
     d="m 859.233,483.981 v 15.097 c 0,0.083 -0.021,0.166 -0.061,0.24 l -21.238,38.892 c -0.248,0.455 -0.938,0.278 -0.938,-0.24 v -15.096 c 0,-0.084 0.02,-0.167 0.06,-0.241 l 21.239,-38.891 c 0.248,-0.455 0.938,-0.279 0.938,0.239 z"
     stroke="url(#paint45_radial_1_111)"
     id="path46"
     style="stroke:#06d631;stroke-opacity:1" />
  <path
     d="m 834.679,592.374 v 0.249 c 0,0.085 -0.022,0.169 -0.063,0.243 l -3.359,6.04 c -0.251,0.451 -0.938,0.273 -0.938,-0.243 v -0.249 c 0,-0.085 0.022,-0.169 0.064,-0.243 l 3.36,-6.04 c 0.235,-0.423 0.853,-0.293 0.929,0.15 z"
     stroke="url(#paint46_radial_1_111)"
     id="path47"
     style="stroke:#06d631;stroke-opacity:1" />
  <path
     d="m 884.758,418.639 v 31.702 c 0,0.163 -0.04,0.324 -0.116,0.468 l -54.108,102.139 c -0.076,0.144 -0.116,0.305 -0.116,0.468 v 45.882"
     stroke="url(#paint47_radial_1_111)"
     id="path48"
     style="stroke:#06d631;stroke-opacity:1" />
  <path
     d="m 851.824,171.801 v -13.97 c 0,-0.065 -0.013,-0.129 -0.037,-0.189 l -15.342,-37.647 c -0.207,-0.508 -0.963,-0.36 -0.963,0.188 v 13.971 c 0,0.065 0.013,0.129 0.037,0.188 l 15.342,37.648 c 0.207,0.508 0.963,0.36 0.963,-0.189 z"
     stroke="url(#paint48_radial_1_111)"
     id="path49"
     style="stroke:#06d631;stroke-opacity:1" />
  <path
     d="m 832.081,61.1994 c 0,-0.0076 -10e-4,-0.0154 -0.004,-0.0225 l -1.548,-3.8457 c -0.007,-0.0174 -0.013,-0.0256 -0.015,-0.0283 -0.003,-0.0028 -0.005,-0.0046 -0.008,-0.0058 -0.007,-0.0032 -0.022,-0.0072 -0.044,-0.003 -0.022,0.0043 -0.035,0.0143 -0.04,0.0196 -0.002,0.0021 -0.004,0.0043 -0.005,0.0078 -10e-4,0.0034 -0.004,0.0135 -0.004,0.0322 0,0.0076 10e-4,0.0154 0.004,0.0225 l 1.548,3.8457 c 0.007,0.0173 0.013,0.0256 0.016,0.0283 0.002,0.0027 0.005,0.0036 0.007,0.0049 0.007,0.0031 0.022,0.0081 0.044,0.0039 0.022,-0.0043 0.036,-0.0143 0.04,-0.0196 0.002,-0.0021 0.004,-0.0052 0.005,-0.0087 0.002,-0.0039 0.004,-0.0135 0.004,-0.0313 z"
     stroke="url(#paint49_radial_1_111)"
     id="path50"
     style="stroke:#06d631;stroke-opacity:1" />
  <path
     d="m 871,238.329 v -31.76 c 0,-0.126 -0.024,-0.251 -0.07,-0.368 L 830.517,103.977 c -0.047,-0.117 -0.07,-0.241 -0.07,-0.367 V 57.6702"
     stroke="url(#paint50_radial_1_111)"
     id="path51"
     style="stroke:#06d631;stroke-opacity:1" />
  <path
     d="m 851.824,269.759 v -13.971 c 0,-0.065 -0.013,-0.129 -0.037,-0.189 l -15.342,-37.647 c -0.207,-0.508 -0.963,-0.36 -0.963,0.188 v 13.971 c 0,0.065 0.013,0.129 0.037,0.189 l 15.342,37.647 c 0.207,0.508 0.963,0.36 0.963,-0.188 z"
     stroke="url(#paint51_radial_1_111)"
     id="path52"
     style="stroke:#06d631;stroke-opacity:1" />
  <path
     d="m 833.5,162.48 v -1.525 c 0,-0.06 -0.011,-0.121 -0.032,-0.178 l -4,-10.553 c -0.197,-0.52 -0.968,-0.379 -0.968,0.176 v 1.526 c 0,0.06 0.011,0.121 0.032,0.178 l 4,10.553 c 0.197,0.52 0.968,0.379 0.968,-0.177 z"
     stroke="url(#paint52_radial_1_111)"
     id="path53"
     style="stroke:#06d631;stroke-opacity:1" />
  <path
     d="m 871,336.286 v -31.76 c 0,-0.126 -0.024,-0.251 -0.07,-0.368 L 830.517,201.935 c -0.047,-0.118 -0.07,-0.242 -0.07,-0.368 v -45.94"
     stroke="url(#paint53_radial_1_111)"
     stroke-width="2"
     id="path54"
     style="stroke:#06d631;stroke-opacity:1" />
  <path
     d="m 859.5,362.093 v -14.85 c 0,-0.084 -0.021,-0.167 -0.061,-0.24 l -21,-38.336 c -0.249,-0.454 -0.939,-0.277 -0.939,0.24 v 14.85 c 0,0.084 0.021,0.166 0.062,0.24 l 21,38.336 c 0.248,0.454 0.938,0.277 0.938,-0.24 z"
     stroke="url(#paint54_radial_1_111)"
     id="path55"
     style="stroke:#06d631;stroke-opacity:1" />
  <path
     d="m 833.5,253.743 c 0,-0.044 -0.008,-0.088 -0.025,-0.129 l -2.327,-5.605 c -0.142,-0.34 -0.648,-0.239 -0.648,0.129 0,0.044 0.009,0.088 0.025,0.129 l 2.328,5.605 c 0.141,0.34 0.647,0.239 0.647,-0.129 z"
     stroke="url(#paint55_radial_1_111)"
     id="path56"
     style="stroke:#06d631;stroke-opacity:1" />
  <path
     d="m 885,428 v -31.764 c 0,-0.162 -0.039,-0.322 -0.115,-0.465 L 831.115,293.435 C 831.039,293.292 831,293.132 831,292.97 V 247"
     stroke="url(#paint56_radial_1_111)"
     id="path57"
     style="display:inline;stroke:#06d631;stroke-opacity:1" />
  <circle
     cx="794"
     cy="512.52802"
     r="28.2437"
     stroke="url(#paint57_radial_1_111)"
     stroke-width="2"
     id="circle57"
     style="display:inline;stroke:#06d631;stroke-opacity:1" />
  <circle
     cx="794"
     cy="512.52802"
     r="19.2756"
     stroke="url(#paint58_radial_1_111)"
     stroke-width="8"
     id="circle58"
     style="display:inline;stroke:#06d631;stroke-opacity:1" />
  <circle
     cx="794"
     cy="423"
     r="121"
     stroke="url(#paint59_radial_1_111)"
     stroke-width="6"
     id="circle59"
     style="display:inline;stroke:#06d631;stroke-opacity:1" />
  <circle
     cx="794"
     cy="423.98001"
     r="88.071404"
     stroke="url(#paint60_radial_1_111)"
     id="circle60"
     style="display:inline;stroke:#06d631;stroke-opacity:1" />
  <circle
     cx="794"
     cy="423"
     r="121"
     stroke="url(#paint61_radial_1_111)"
     stroke-width="6"
     id="circle61"
     style="display:inline;stroke:#06d631;stroke-opacity:1;filter:url(#filter598)" />
  <circle
     cx="794"
     cy="423.98001"
     r="88.071404"
     stroke="url(#paint62_radial_1_111)"
     id="circle62"
     style="display:inline;stroke:#06d631;stroke-opacity:1" />
  <rect
     x="36.280563"
     y="30.933687"
     width="1522.4629"
     height="791.47607"
     rx="95.652786"
     stroke="url(#paint66_radial_1_111)"
     id="rect65"
     style="stroke:none;stroke-width:1.05496;stroke-opacity:1;filter:url(#filter596)"
     ry="92.684166" />
  <defs
     id="defs394">
    <filter
       id="filter0_f_1_111"
       x="660"
       y="46"
       width="413.17499"
       height="753.33301"
       filterUnits="userSpaceOnUse"
       color-interpolation-filters="sRGB">
      <feFlood
         flood-opacity="0"
         result="BackgroundImageFix"
         id="feFlood65" />
      <feBlend
         mode="normal"
         in="SourceGraphic"
         in2="BackgroundImageFix"
         result="shape"
         id="feBlend65" />
      <feGaussianBlur
         stdDeviation="5"
         result="effect1_foregroundBlur_1_111"
         id="feGaussianBlur65" />
    </filter>
    <radialGradient
       id="paint20_radial_1_111"
       cx="0"
       cy="0"
       r="1"
       gradientUnits="userSpaceOnUse"
       gradientTransform="matrix(-4.5479592,9.004991,-12.529223,-6.3278679,871.233,532.354)">
      <stop
         stop-color="white"
         id="stop165" />
      <stop
         offset="0.536458"
         stop-color="#C96161"
         id="stop166" />
      <stop
         offset="1"
         stop-color="#EC4949"
         id="stop167" />
    </radialGradient>
    <filter
       style="color-interpolation-filters:sRGB"
       id="filter596"
       x="-0.001459071"
       y="-0.0028066312"
       width="1.0029181"
       height="1.0056133">
      <feGaussianBlur
         stdDeviation="0.92557559"
         id="feGaussianBlur596" />
    </filter>
    <filter
       style="color-interpolation-filters:sRGB"
       id="filter597"
       x="-0.0017863813"
       y="-0.0033513105"
       width="1.0035728"
       height="1.0067026">
      <feGaussianBlur
         stdDeviation="0.9744"
         id="feGaussianBlur597" />
    </filter>
    <filter
       style="color-interpolation-filters:sRGB"
       id="filter598"
       x="-0.029676695"
       y="-0.029676695"
       width="1.0593534"
       height="1.0593534">
      <feGaussianBlur
         stdDeviation="1.7424"
         id="feGaussianBlur598" />
    </filter>
  </defs>
</svg>
