<?xml version="1.0" encoding="UTF-8" standalone="no"?>
<!-- Created with Inkscape (http://www.inkscape.org/) -->

<svg
   width="180"
   height="180"
   viewBox="0 0 180 180"
   version="1.1"
   id="svg1"
   sodipodi:docname="logo.svg"
   inkscape:export-filename="logo.svg"
   inkscape:export-xdpi="96"
   inkscape:export-ydpi="96"
   inkscape:version="1.4.2 (f4327f4, 2025-05-13)"
   xml:space="preserve"
   xmlns:inkscape="http://www.inkscape.org/namespaces/inkscape"
   xmlns:sodipodi="http://sodipodi.sourceforge.net/DTD/sodipodi-0.dtd"
   xmlns="http://www.w3.org/2000/svg"
   xmlns:svg="http://www.w3.org/2000/svg"><sodipodi:namedview
     id="namedview1"
     pagecolor="#505050"
     bordercolor="#eeeeee"
     borderopacity="1"
     inkscape:showpageshadow="0"
     inkscape:pageopacity="0"
     inkscape:pagecheckerboard="0"
     inkscape:deskcolor="#505050"
     inkscape:zoom="0.28020833"
     inkscape:cx="146.3197"
     inkscape:cy="731.59851"
     inkscape:window-width="2043"
     inkscape:window-height="1000"
     inkscape:window-x="2094"
     inkscape:window-y="0"
     inkscape:window-maximized="0"
     inkscape:current-layer="svg1" /><defs
     id="defs1" /><g
     id="g4"
     transform="translate(-534.66915,-109.29368)"><path
       d="m 0,0 c 102.96,0 205.92,0 312,0 0,103.62 0,207.24 0,314 -102.96,0 -205.92,0 -312,0 C 0,210.38 0,106.76 0,0 Z"
       fill="#020202"
       id="path1-0" /><path
       d="m 0,0 c 102.96,0 205.92,0 312,0 0,103.62 0,207.24 0,314 -102.96,0 -205.92,0 -312,0 C 0,210.38 0,106.76 0,0 Z M 45.859375,60.792969 C 40.866541,66.121628 36.775496,71.735759 33,78 32.656787,78.562837 32.313574,79.125674 31.959961,79.705566 21.519205,96.932334 13.242862,115.81424 11,136 c -0.10957,0.84176 -0.219141,1.68352 -0.332031,2.55078 C 10.325839,141.70294 10.145354,144.83195 10,148 9.960684,148.81453 9.921367,149.62905 9.8808594,150.46826 8.6976927,178.66874 14.40157,208.62041 31,232 c 1.068536,1.74632 2.132097,3.49571 3.1875,5.25 19.629997,30.86559 51.476498,52.16318 86.8125,60.75 39.10535,8.19784 79.49417,0.74876 113.125,-20.75 7.06348,-4.88862 13.51045,-10.4962 19.875,-16.25 0.75152,-0.67805 1.50305,-1.35609 2.27734,-2.05469 C 276.87443,239.317 288.05595,214.10156 295,187 c 0.18079,-0.66854 0.36158,-1.33708 0.54785,-2.02588 8.56578,-32.04079 0.73,-69.223 -15.0791,-97.735839 C 279.02527,84.79281 277.52828,82.393272 276,80 275.11441,78.574941 275.11441,78.574941 274.21094,77.121094 269.96047,70.305193 269.96047,70.305193 265,64 c -0.66,0 -1.32,0 -2,0 -0.20754,-0.531094 -0.41508,-1.062188 -0.62891,-1.609375 C 256.89391,52.840665 246.02131,44.915436 237,39 236.29005,38.526431 235.5801,38.052861 234.84863,37.564941 222.79029,29.362924 222.79029,29.362924 209.42187,23.746094 207,23 207,23 203.69922,21.539062 199.9104,19.882538 196.08021,18.878969 192.0625,17.9375 c -1.34245,-0.324219 -2.6849,-0.648438 -4.02734,-0.972656 -0.66145,-0.156944 -1.3229,-0.313887 -2.0044,-0.475586 -2.09486,-0.5047 -4.18157,-1.036936 -6.26904,-1.571289 C 130.4994,2.8965294 79.585038,25.889929 45.859375,60.792969 Z"
       fill="#fdfdfd"
       id="path2-9" /><path
       d="M 0,0 C 1.3763562,0.0141394 1.3763562,0.0141394 2.7805176,0.02856445 17.63543,0.35809012 29.596658,4.7650079 40.429687,15.054688 47.557883,22.588759 50.625,31.041281 50.625,41.375 c -8.25,0 -16.5,0 -25,0 -0.99,-2.31 -1.98,-4.62 -3,-7 C 17.182886,28.932886 11.478938,26.031567 3.7770996,25.95752 2.7736853,25.978547 2.7736853,25.978547 1.75,26 1.048186,26.01015 0.34637207,26.0203 -0.37670898,26.03076 -9.0126913,26.288373 -14.683909,28.16991 -21.0625,33.972656 c -2.531047,2.704303 -2.459226,5.062149 -2.602295,8.657471 -0.578003,14.380513 -3.43353,28.846415 -14.440674,39.108154 C -42.80183,85.125158 -50.504221,90.375 -56.375,90.375 c 1.930305,3.398758 3.974977,6.256868 6.625,9.125 3.801038,4.19568 7.390339,8.52643 10.957031,12.92188 2.604868,3.18138 5.254928,6.32048 7.917969,9.45312 3.538628,4.17283 7.069263,8.35155 10.5625,12.5625 0.712852,0.85723 1.425703,1.71445 2.160156,2.59766 1.576283,2.07515 2.657666,4.00484 3.777344,6.33984 -4.552822,0.24893 -9.10162,0.42939 -13.659668,0.54932 -1.546601,0.05 -3.092735,0.11806 -4.637695,0.20507 -12.819947,0.70349 -12.819947,0.70349 -17.41626,-2.85571 -2.034203,-2.54152 -3.658383,-5.08456 -5.286377,-7.89868 -1.246266,-1.62333 -2.514363,-3.23035 -3.8125,-4.8125 -0.986133,-1.23363 -0.986133,-1.23363 -1.992187,-2.49219 -2.964379,-3.63954 -6.001497,-7.21473 -9.042481,-10.79028 -5.83797,-6.87125 -11.520303,-13.86437 -17.152832,-20.90503 -6.93,-0.33 -13.86,-0.66 -21,-1 0,16.5 0,33 0,50 -8.25,0 -16.5,0 -25,0 0,-24.75 0,-49.5 0,-75 33.5,-0.25 33.5,-0.25 44.037109,-0.297852 3.145356,-0.03326 3.145356,-0.03326 6.29065,-0.07172 1.389592,-0.01451 2.779277,-0.02138 4.168945,-0.02197 9.409511,-0.01084 16.103881,-0.522415 23.815796,-6.358459 4.415735,-5.887647 4.861813,-11.412706 5.125,-18.5625 C -49.469437,31.586893 -46.451021,22.814359 -38.375,14.375 -27.792198,4.7162678 -14.208386,-0.22749197 0,0 Z"
       fill="#fbfbfb"
       id="path3"
       transform="translate(193.375,84.625)" /><path
       d="M 0,0 C 46.639623,3.6169504 46.639623,3.6169504 60.625,18.375 67.419017,26.929351 69.772286,36.106702 69,47 67.768251,56.713222 63.4194,66.466926 56,73 46.740809,80.113919 37.378536,84.433324 26,87 24.986797,87.248789 23.973594,87.497578 22.929687,87.753906 19.762812,88.182472 17.992588,88.154478 15,87 11.24234,83.609197 8.2880738,79.863727 5.3154297,75.783691 3.3088014,73.062751 1.1550802,70.479927 -1,67.875 -1.70125,67.006172 -2.4025,66.137344 -3.125,65.242187 -4.9078945,63.027197 -4.9078945,63.027197 -6.75,61.320312 -8,60 -8,60 -8,58 c 0.5800781,0.132773 1.1601563,0.265547 1.7578125,0.402344 0.7811719,0.176601 1.5623438,0.353203 2.3671875,0.535156 0.7657031,0.174023 1.5314062,0.348047 2.3203125,0.527344 C 11.346407,62.167367 23.787093,62.327684 35.4375,55.625 38.651136,53.417654 40.683611,51.784619 42,48 42.562426,43.222939 43.011587,38.759282 40.5625,34.5 33.33815,30.271112 25.443144,29.35663 17.25,28.5 -2.4830575,26.219105 -2.4830575,26.219105 -8,24 -9,21 -9,21 -8.1445313,18.90625 -7.7049609,18.112187 -7.2653906,17.318125 -6.8125,16.5 -3.9954086,11.164838 -1.941001,5.7037235 0,0 Z"
       fill="#fafafa"
       transform="translate(179,142)"
       id="path4" /><path
       d="m 0,0 c 8.7373978,-0.11372719 17.47429,-0.20512868 26.212266,-0.25906086 4.059004,-0.0259069 8.117468,-0.0609499 12.176162,-0.11813641 3.929337,-0.0550067 7.858161,-0.0843647 11.787855,-0.097189 1.486498,-0.009119 2.972973,-0.0269185 4.459247,-0.0542641 C 65.063628,-0.71258526 74.482267,0.33925032 84,5 c 0.495,1.485 0.495,1.485 1,3 -1.361569,2.377577 -2.752329,4.571954 -4.3125,6.8125 C 77.716378,19.115345 75.416955,22.888002 74,28 c -5.650015,-0.898866 -5.650015,-0.898866 -7.807556,-1.522324 -2.8664,-0.624513 -5.587753,-0.642572 -8.521546,-0.682998 -1.921539,-0.02992 -1.921539,-0.02992 -3.881897,-0.06044 -1.393207,-0.01698 -2.786416,-0.03386 -4.179626,-0.05064 -1.429185,-0.02058 -2.858364,-0.04158 -4.287537,-0.06297 -3.754773,-0.0551 -7.509599,-0.10456 -11.264465,-0.152848 C 30.223096,25.417467 26.388897,25.361829 22.554687,25.306641 15.036522,25.199213 7.5182919,25.098227 0,25 0,16.75 0,8.5 0,0 Z"
       fill="#fcfcfc"
       transform="translate(61,86)"
       id="path5" /></g><ellipse
     style="display:inline;fill:none;fill-opacity:1;stroke:#88fb59;stroke-width:3.52557;stroke-dasharray:none;stroke-opacity:1"
     cx="154.75853"
     cy="365.29587"
     rx="141.52573"
     ry="145.89801"
     id="ellipse2"
     inkscape:export-filename="C:\repositories\FreelanceProjects\lizardinteractive\public\favicon.svg"
     inkscape:export-xdpi="96"
     inkscape:export-ydpi="96" /><g
     id="g5"
     transform="matrix(1.1472319,0,0,1.1472319,-23.378394,-53.535304)"><ellipse
       style="display:inline;fill:#000000;fill-opacity:1;stroke:#ffffff;stroke-width:3.0793;stroke-dasharray:none;stroke-opacity:1"
       cx="155.3894"
       cy="364.03412"
       rx="123.61096"
       ry="127.42978"
       id="ellipse2-4" /><g
       id="g2"
       transform="matrix(1.9751763,0,0,1.9751763,-385.50515,190.32391)"
       style="fill:#ffffff;fill-opacity:1;stroke:none"><g
         id="g1"
         style="fill:#ffffff;fill-opacity:1;stroke:none"><path
           style="fill:#ffffff;fill-opacity:1;stroke:none;stroke-width:1.559;stroke-dasharray:none;stroke-opacity:1"
           d="m 273.69084,42.752057 -43.65993,74.576153 h 89.90424 l -21.97832,-35.436633 -15.41488,0.202528 10.84045,19.855145 -35.40509,-0.20254 26.45463,-41.990555 z"
           id="path1" /></g><path
         style="fill:#ffffff;fill-opacity:1;stroke:none;stroke-width:1.559;stroke-dasharray:none;stroke-opacity:1"
         d="m 289.85849,67.177002 -9.00395,9.504928 h 15.15466 z"
         id="path2" /></g></g></svg>
